<svg id="svg" version="1.1" xmlns="http://www.w3.org/2000/svg" xmlns:xlink="http://www.w3.org/1999/xlink" width="400" height="288.5813148788927" viewBox="0, 0, 400,288.5813148788927"><g id="svgg"><path id="path0" d="M101.432 13.997 C 101.432 21.775,101.470 24.915,101.515 20.976 C 101.560 17.036,101.560 10.672,101.515 6.834 C 101.469 2.996,101.432 6.219,101.432 13.997 M172.652 38.456 L 172.727 76.912 200.083 76.936 C 215.129 76.949,227.272 76.854,227.067 76.724 C 226.863 76.594,225.827 76.486,224.766 76.483 L 222.837 76.479 222.809 69.367 C 222.794 65.455,222.722 62.157,222.648 62.038 C 222.450 61.718,223.272 61.472,224.538 61.472 C 225.150 61.472,225.720 61.361,225.804 61.225 C 226.096 60.752,221.462 60.606,206.161 60.606 L 190.765 60.606 190.765 53.247 L 190.765 45.887 206.710 45.854 C 215.480 45.836,222.913 45.849,223.229 45.884 C 223.741 45.940,223.726 45.884,223.085 45.359 C 222.409 44.806,222.784 44.614,223.575 45.108 C 223.836 45.271,223.924 43.568,223.944 37.979 C 223.963 32.612,223.879 30.579,223.629 30.425 C 223.400 30.283,223.364 30.338,223.521 30.592 C 223.680 30.849,223.642 30.900,223.402 30.752 C 223.139 30.589,223.180 30.391,223.566 29.964 C 223.850 29.651,223.956 29.420,223.801 29.450 C 223.647 29.481,216.151 29.490,207.143 29.471 L 190.765 29.437 190.765 22.799 L 190.765 16.162 206.999 16.157 C 216.942 16.154,223.070 16.050,222.814 15.888 C 222.492 15.684,222.590 15.581,223.247 15.435 C 224.638 15.125,224.725 15.054,223.737 15.030 L 222.799 15.007 222.799 7.504 L 222.799 0.000 197.688 0.000 L 172.577 0.000 172.652 38.456 M225.108 7.336 C 225.108 11.370,225.018 14.909,224.908 15.200 C 224.720 15.695,224.739 15.698,225.197 15.244 C 225.769 14.677,225.962 0.000,225.397 0.000 C 225.212 0.000,225.108 2.638,225.108 7.336 M226.676 68.975 C 226.676 72.864,226.717 74.455,226.767 72.511 C 226.817 70.566,226.817 67.385,226.767 65.440 C 226.717 63.496,226.676 65.087,226.676 68.975 M195.072 105.696 C 194.889 106.325,194.911 106.751,195.119 106.622 C 195.264 106.533,195.392 106.565,195.404 106.693 C 195.496 107.660,195.728 108.332,196.534 109.966 C 196.654 110.209,196.844 110.826,196.956 111.337 C 197.068 111.848,197.279 112.266,197.426 112.266 C 197.572 112.266,197.691 112.590,197.691 112.987 C 197.691 113.384,197.821 113.709,197.980 113.709 C 198.139 113.709,198.268 114.033,198.268 114.430 C 198.268 114.827,198.384 115.152,198.525 115.152 C 198.666 115.152,198.865 115.597,198.967 116.141 C 199.069 116.685,199.277 117.172,199.429 117.223 C 199.582 117.274,199.735 117.664,199.770 118.089 C 199.805 118.514,199.936 118.798,200.061 118.721 C 200.255 118.602,200.430 119.739,200.323 120.418 C 200.304 120.538,200.483 120.635,200.722 120.635 C 200.991 120.635,201.154 120.907,201.154 121.356 C 201.154 121.753,201.284 122.078,201.443 122.078 C 201.602 122.078,201.716 122.175,201.697 122.294 C 201.569 123.107,201.792 124.098,202.103 124.098 C 202.314 124.098,202.505 124.498,202.545 125.025 C 202.584 125.534,202.723 126.021,202.855 126.107 C 202.986 126.193,203.268 126.782,203.482 127.417 C 203.696 128.052,204.039 128.776,204.244 129.027 C 204.450 129.278,204.618 129.830,204.618 130.254 C 204.618 130.678,204.747 131.025,204.906 131.025 C 205.065 131.025,205.195 131.333,205.195 131.711 C 205.195 132.088,205.396 132.563,205.641 132.767 C 205.886 132.971,206.024 133.302,205.947 133.503 C 205.869 133.704,205.993 134.024,206.222 134.213 C 206.451 134.403,206.638 134.781,206.638 135.052 C 206.638 135.324,206.728 135.636,206.839 135.747 C 207.036 135.944,207.169 136.453,207.281 137.446 C 207.312 137.724,207.505 137.951,207.709 137.951 C 207.928 137.951,208.081 138.300,208.081 138.800 C 208.081 139.267,208.211 139.729,208.369 139.827 C 208.528 139.925,208.658 140.322,208.658 140.710 C 208.658 141.119,208.809 141.384,209.019 141.342 C 209.255 141.295,209.349 141.553,209.292 142.090 C 209.241 142.573,209.322 142.838,209.489 142.734 C 209.875 142.496,210.135 142.983,210.164 144.001 C 210.177 144.467,210.361 144.915,210.573 144.997 C 210.784 145.078,210.888 145.323,210.805 145.542 C 210.721 145.760,210.853 146.106,211.098 146.309 C 211.343 146.513,211.544 146.998,211.544 147.386 C 211.544 147.775,211.727 148.276,211.951 148.500 C 212.175 148.724,212.294 149.155,212.215 149.457 C 212.136 149.760,212.212 150.094,212.385 150.201 C 212.557 150.308,212.698 150.659,212.698 150.982 C 212.698 151.314,212.934 151.631,213.242 151.711 C 213.596 151.804,213.738 152.035,213.650 152.372 C 213.576 152.657,213.726 153.299,213.984 153.799 C 214.242 154.298,214.374 154.836,214.276 154.994 C 214.178 155.152,214.271 155.246,214.481 155.202 C 214.727 155.151,214.897 155.481,214.958 156.133 C 215.010 156.688,215.230 157.242,215.446 157.364 C 215.662 157.485,215.789 157.840,215.729 158.152 C 215.666 158.479,215.764 158.690,215.963 158.652 C 216.161 158.614,216.302 158.913,216.296 159.358 C 216.291 159.783,216.390 160.066,216.516 159.988 C 216.642 159.910,216.825 160.245,216.923 160.731 C 217.020 161.218,217.213 161.616,217.352 161.616 C 217.491 161.616,217.605 161.949,217.605 162.355 C 217.605 162.821,217.722 163.020,217.924 162.896 C 218.139 162.763,218.180 162.899,218.049 163.312 C 217.933 163.676,217.980 163.925,218.162 163.925 C 218.332 163.925,218.470 164.109,218.470 164.334 C 218.470 164.559,218.633 164.808,218.831 164.888 C 219.120 165.005,219.120 165.038,218.831 165.057 C 218.633 165.069,218.470 165.217,218.470 165.385 C 218.470 165.553,218.600 165.610,218.759 165.512 C 218.918 165.414,219.061 165.569,219.078 165.856 C 219.095 166.143,219.128 166.638,219.150 166.955 C 219.173 167.273,219.364 167.497,219.574 167.453 C 219.803 167.406,219.872 167.510,219.746 167.713 C 219.631 167.900,219.732 168.196,219.970 168.370 C 220.209 168.544,220.413 168.752,220.424 168.831 C 220.459 169.091,220.830 170.695,220.982 171.250 C 221.101 171.684,221.182 171.713,221.384 171.395 C 221.581 171.082,221.637 171.078,221.641 171.373 C 221.643 171.581,221.775 171.671,221.934 171.573 C 222.092 171.475,222.222 171.585,222.222 171.817 C 222.222 172.105,222.014 172.196,221.573 172.102 C 221.011 171.982,220.982 172.015,221.356 172.350 C 222.109 173.022,223.024 174.223,222.439 173.769 C 221.991 173.422,221.934 173.453,221.934 174.039 C 221.934 174.402,222.018 174.615,222.121 174.512 C 222.224 174.409,222.548 174.602,222.842 174.941 C 223.136 175.280,223.377 175.415,223.377 175.242 C 223.377 175.068,223.256 174.851,223.109 174.760 C 222.949 174.661,222.831 165.433,222.816 151.719 C 222.802 139.137,222.735 128.555,222.667 128.202 C 222.537 127.525,222.938 127.308,223.185 127.922 C 223.297 128.200,223.336 128.196,223.354 127.905 C 223.366 127.697,223.519 127.616,223.694 127.723 C 223.917 127.861,223.914 127.738,223.684 127.308 C 223.504 126.971,223.199 126.698,223.006 126.700 C 222.780 126.703,222.809 126.815,223.088 127.016 C 223.448 127.275,223.432 127.298,222.992 127.156 C 222.702 127.061,222.409 126.984,222.343 126.984 C 222.277 126.984,222.222 126.793,222.222 126.560 C 222.222 126.327,222.389 126.200,222.593 126.279 C 223.159 126.496,223.140 125.210,222.572 124.795 C 222.304 124.598,222.007 124.486,221.913 124.544 C 221.818 124.602,221.741 124.463,221.741 124.234 C 221.741 123.918,221.835 123.896,222.130 124.141 C 222.440 124.398,222.499 124.331,222.420 123.812 C 222.365 123.454,222.006 122.987,221.622 122.774 C 221.238 122.561,221.086 122.382,221.284 122.377 C 221.483 122.371,221.645 122.164,221.645 121.917 C 221.645 121.669,221.515 121.547,221.356 121.645 C 221.070 121.822,220.934 121.259,221.022 120.254 C 221.048 119.965,220.866 119.526,220.619 119.279 C 220.371 119.031,220.243 118.636,220.333 118.401 C 220.451 118.094,220.362 118.025,220.020 118.156 C 219.621 118.309,219.603 118.268,219.908 117.900 C 220.158 117.599,220.170 117.460,219.949 117.460 C 219.771 117.460,219.625 117.150,219.625 116.770 C 219.625 116.390,219.417 115.999,219.162 115.901 C 218.898 115.800,218.770 115.539,218.864 115.293 C 218.955 115.057,218.871 114.861,218.678 114.858 C 218.419 114.855,218.425 114.791,218.701 114.617 C 219.000 114.427,218.986 114.305,218.632 114.011 C 218.388 113.809,218.259 113.528,218.346 113.387 C 218.433 113.246,218.270 113.129,217.982 113.127 C 217.540 113.123,217.526 113.080,217.893 112.843 C 218.131 112.689,218.191 112.561,218.027 112.559 C 217.862 112.556,217.696 112.137,217.657 111.627 C 217.618 111.118,217.468 110.628,217.324 110.539 C 217.180 110.450,216.998 110.022,216.920 109.588 C 216.841 109.154,216.590 108.612,216.362 108.384 C 216.118 108.140,216.000 107.636,216.077 107.159 C 216.172 106.568,216.130 106.459,215.922 106.757 C 215.696 107.079,215.616 107.019,215.538 106.468 L 215.440 105.772 205.267 105.696 C 199.672 105.654,195.084 105.654,195.072 105.696 M163.523 108.970 C 163.252 109.676,163.311 109.769,163.781 109.380 C 164.260 108.981,164.355 108.514,163.956 108.514 C 163.814 108.514,163.619 108.719,163.523 108.970 M165.221 109.384 C 165.121 109.546,164.886 109.586,164.699 109.473 C 164.511 109.361,164.548 109.521,164.781 109.829 C 165.014 110.137,165.223 110.426,165.246 110.470 C 165.269 110.514,165.631 110.420,166.049 110.261 C 166.539 110.075,166.811 110.072,166.811 110.252 C 166.811 110.407,166.554 110.534,166.239 110.534 C 165.338 110.534,165.348 110.082,165.432 144.808 C 165.500 172.882,165.453 177.761,165.111 177.630 C 164.782 177.504,164.776 177.556,165.074 177.915 C 165.274 178.157,165.325 178.359,165.187 178.364 C 165.048 178.369,164.717 178.674,164.450 179.042 C 163.972 179.699,163.977 179.708,164.733 179.563 C 165.618 179.394,166.300 178.817,166.004 178.488 C 165.892 178.364,166.023 178.343,166.295 178.440 C 166.613 178.554,166.974 178.384,167.305 177.964 C 167.603 177.587,168.371 177.190,169.120 177.025 C 169.834 176.867,170.389 176.592,170.353 176.413 C 170.318 176.235,170.675 175.917,171.147 175.708 C 171.619 175.499,172.006 175.222,172.006 175.093 C 172.006 174.964,172.136 174.938,172.294 175.036 C 172.453 175.134,172.583 175.026,172.583 174.796 C 172.583 174.566,172.903 174.297,173.294 174.199 C 173.807 174.070,173.955 173.887,173.822 173.543 C 173.715 173.262,173.757 173.138,173.925 173.242 C 174.266 173.453,175.218 172.429,174.940 172.150 C 174.834 172.044,174.877 171.984,175.036 172.016 C 175.628 172.135,176.046 171.996,176.046 171.679 C 176.046 171.333,177.481 169.987,177.850 169.986 C 177.969 169.986,178.066 169.791,178.066 169.553 C 178.066 169.315,178.192 169.120,178.347 169.120 C 178.501 169.120,178.869 168.591,179.166 167.944 C 179.462 167.297,179.823 166.748,179.968 166.724 C 180.283 166.671,182.395 163.229,182.395 162.769 C 182.395 162.593,182.525 162.528,182.684 162.626 C 182.843 162.724,182.973 162.566,182.973 162.275 C 182.973 161.983,183.175 161.456,183.422 161.103 C 183.669 160.750,183.792 160.331,183.694 160.173 C 183.596 160.014,183.690 159.885,183.903 159.885 C 184.116 159.885,184.319 159.533,184.354 159.104 C 184.390 158.674,184.548 158.194,184.706 158.036 C 184.864 157.878,184.993 157.399,184.993 156.972 C 184.993 156.544,185.188 156.120,185.426 156.028 C 185.710 155.919,185.859 155.469,185.859 154.716 C 185.859 154.085,185.988 153.489,186.147 153.391 C 186.306 153.293,186.436 152.376,186.436 151.354 C 186.436 150.331,186.562 149.495,186.715 149.495 C 186.869 149.495,186.912 149.279,186.811 149.015 C 186.695 148.712,186.741 148.605,186.935 148.725 C 187.366 148.991,187.328 140.556,186.896 139.988 C 186.657 139.673,186.667 139.624,186.938 139.786 C 187.180 139.932,187.240 139.858,187.124 139.555 C 187.030 139.309,186.836 139.181,186.694 139.268 C 186.551 139.357,186.436 138.523,186.436 137.408 C 186.436 136.297,186.306 135.307,186.147 135.209 C 185.988 135.111,185.859 134.515,185.859 133.884 C 185.859 133.132,185.710 132.681,185.426 132.572 C 185.159 132.469,184.993 132.031,184.993 131.427 C 184.993 130.888,184.863 130.447,184.704 130.447 C 184.545 130.447,184.411 130.155,184.406 129.798 C 184.401 129.441,184.207 128.897,183.974 128.588 C 183.740 128.280,183.550 127.793,183.550 127.506 C 183.550 127.219,183.430 126.984,183.284 126.984 C 183.137 126.984,182.871 126.541,182.692 126.000 C 182.514 125.458,182.179 124.943,181.949 124.854 C 181.718 124.766,181.530 124.430,181.530 124.107 C 181.530 123.785,181.400 123.521,181.241 123.521 C 181.082 123.521,180.952 123.283,180.952 122.991 C 180.952 122.700,180.558 122.111,180.076 121.682 C 179.595 121.252,179.280 120.773,179.376 120.617 C 179.473 120.460,179.380 120.368,179.170 120.411 C 178.960 120.455,178.788 120.296,178.788 120.058 C 178.788 119.820,178.558 119.531,178.276 119.415 C 177.995 119.300,177.678 118.975,177.571 118.694 C 177.323 118.039,176.753 117.460,176.355 117.460 C 176.185 117.460,176.046 117.266,176.046 117.027 C 176.046 116.789,175.844 116.595,175.596 116.595 C 175.349 116.595,175.227 116.465,175.325 116.306 C 175.423 116.147,175.301 116.017,175.053 116.017 C 174.806 116.017,174.603 115.809,174.603 115.554 C 174.603 115.260,174.444 115.151,174.170 115.256 C 173.918 115.353,173.737 115.260,173.737 115.033 C 173.737 114.820,173.518 114.467,173.249 114.249 C 172.917 113.980,172.830 113.968,172.978 114.214 C 173.097 114.412,173.118 114.574,173.026 114.574 C 172.933 114.574,172.731 114.242,172.576 113.835 C 172.422 113.429,172.189 113.162,172.059 113.243 C 171.929 113.323,171.480 113.071,171.061 112.683 C 170.642 112.295,169.955 111.977,169.534 111.977 C 168.962 111.977,168.813 111.864,168.941 111.529 C 169.040 111.272,168.991 111.156,168.828 111.257 C 168.671 111.354,168.543 111.231,168.543 110.984 C 168.543 110.702,168.285 110.534,167.852 110.534 C 167.472 110.534,167.081 110.325,166.983 110.070 C 166.854 109.733,166.600 109.658,166.050 109.796 C 165.444 109.949,165.329 109.898,165.467 109.538 C 165.660 109.036,165.499 108.935,165.221 109.384 M223.261 128.670 C 223.168 128.820,223.285 129.018,223.523 129.109 C 223.760 129.200,223.954 129.490,223.954 129.752 C 223.954 130.165,223.886 130.176,223.449 129.833 C 222.988 129.472,222.980 129.483,223.350 129.955 C 223.821 130.555,224.192 130.301,224.306 129.299 C 224.388 128.580,223.607 128.110,223.261 128.670 M224.700 131.705 C 224.823 132.026,224.728 132.179,224.407 132.179 C 224.023 132.179,223.992 132.288,224.242 132.756 C 224.412 133.074,224.742 133.333,224.974 133.333 C 225.471 133.333,225.535 132.876,225.077 132.593 C 224.846 132.450,224.850 132.338,225.091 132.190 C 225.329 132.042,225.295 131.877,224.971 131.608 C 224.587 131.289,224.545 131.303,224.700 131.705 M225.842 134.179 C 225.751 134.327,225.810 134.531,225.974 134.632 C 226.138 134.733,226.197 134.937,226.106 135.085 C 226.015 135.233,226.077 135.354,226.246 135.354 C 226.414 135.354,226.551 135.159,226.551 134.921 C 226.551 134.683,226.414 134.488,226.246 134.488 C 226.077 134.488,226.020 134.358,226.118 134.199 C 226.216 134.040,226.232 133.911,226.152 133.911 C 226.073 133.911,225.933 134.031,225.842 134.179 M226.387 136.252 C 226.278 136.428,226.352 136.673,226.551 136.797 C 226.751 136.920,226.825 137.165,226.715 137.341 C 226.606 137.518,226.691 137.662,226.904 137.662 C 227.117 137.662,227.318 137.342,227.350 136.951 C 227.396 136.398,227.303 136.281,226.933 136.423 C 226.613 136.546,226.525 136.495,226.665 136.268 C 226.780 136.083,226.809 135.931,226.730 135.931 C 226.650 135.931,226.496 136.075,226.387 136.252 M230.365 145.839 C 230.400 146.262,230.530 146.609,230.653 146.609 C 230.914 146.609,230.796 145.563,230.502 145.269 C 230.392 145.158,230.330 145.415,230.365 145.839 M237.116 145.622 C 236.845 146.329,236.904 146.399,237.374 145.929 C 237.864 145.438,237.927 145.166,237.549 145.166 C 237.407 145.166,237.212 145.371,237.116 145.622 M223.629 175.469 C 223.581 175.852,223.463 176.317,223.391 176.407 C 223.170 176.681,223.191 177.489,223.419 177.489 C 223.573 177.489,223.617 177.652,223.517 177.850 C 223.416 178.048,223.519 177.985,223.745 177.710 C 223.970 177.435,224.227 177.281,224.314 177.369 C 224.402 177.456,224.454 177.292,224.430 177.003 C 224.406 176.715,224.230 176.378,224.038 176.255 C 223.846 176.132,223.763 175.840,223.852 175.606 C 223.942 175.372,223.937 175.180,223.840 175.180 C 223.744 175.180,223.649 175.310,223.629 175.469 M223.954 178.744 C 223.954 179.564,225.134 179.880,225.569 179.176 C 225.699 178.965,225.647 178.922,225.426 179.058 C 225.221 179.185,224.846 179.007,224.516 178.626 L 223.954 177.978 223.954 178.744 M224.607 180.423 C 224.583 180.745,224.758 180.951,225.054 180.948 C 225.474 180.944,225.481 180.905,225.108 180.664 C 224.820 180.477,224.796 180.383,225.036 180.380 C 225.234 180.377,225.397 180.267,225.397 180.135 C 225.397 179.641,224.645 179.915,224.607 180.423 M225.621 181.869 C 225.869 182.117,225.875 182.312,225.643 182.591 C 225.148 183.187,225.639 183.039,226.347 182.378 C 226.900 181.861,226.912 181.810,226.432 181.994 C 226.046 182.141,225.942 182.103,226.088 181.867 C 226.217 181.658,226.103 181.530,225.789 181.530 C 225.400 181.530,225.361 181.609,225.621 181.869 M166.234 211.829 L 161.183 211.998 165.224 212.116 C 167.792 212.191,168.555 212.271,167.318 212.335 L 165.372 212.436 165.298 250.085 L 165.224 287.735 165.945 287.753 L 166.667 287.771 165.945 288.106 C 164.871 288.606,166.538 288.656,180.087 288.537 C 192.105 288.432,192.358 288.418,193.015 287.807 C 193.229 287.608,193.776 287.446,194.232 287.446 C 194.687 287.446,195.140 287.316,195.238 287.157 C 195.336 286.999,195.743 286.869,196.142 286.869 C 196.540 286.869,197.056 286.679,197.287 286.448 C 197.519 286.217,197.898 286.100,198.130 286.189 C 198.367 286.280,198.630 286.148,198.730 285.889 C 198.827 285.634,199.218 285.426,199.598 285.426 C 199.978 285.426,200.289 285.296,200.289 285.137 C 200.289 284.978,200.613 284.848,201.010 284.848 C 201.459 284.848,201.732 284.685,201.732 284.416 C 201.732 284.177,201.929 283.983,202.170 283.983 C 202.709 283.983,204.881 282.643,205.517 281.917 C 205.774 281.625,206.181 281.385,206.422 281.385 C 206.663 281.385,207.073 281.061,207.333 280.664 C 207.593 280.267,208.005 279.942,208.249 279.942 C 208.493 279.942,208.612 279.812,208.514 279.654 C 208.416 279.495,208.538 279.365,208.785 279.365 C 209.033 279.365,209.235 279.241,209.235 279.089 C 209.235 278.937,209.949 278.115,210.823 277.263 C 211.696 276.410,212.410 275.576,212.410 275.408 C 212.410 275.241,212.670 275.035,212.987 274.952 C 213.304 274.869,213.564 274.595,213.564 274.342 C 213.564 274.089,213.694 273.882,213.853 273.882 C 214.012 273.882,214.141 273.687,214.141 273.449 C 214.141 273.211,214.271 273.016,214.430 273.016 C 214.589 273.016,214.719 272.691,214.719 272.294 C 214.719 271.845,214.882 271.573,215.152 271.573 C 215.396 271.573,215.584 271.314,215.584 270.979 C 215.584 270.652,215.714 270.465,215.873 270.563 C 216.032 270.661,216.162 270.466,216.162 270.130 C 216.162 269.791,216.292 269.599,216.454 269.699 C 216.616 269.799,216.824 269.486,216.923 268.995 C 217.020 268.508,217.182 268.110,217.283 268.110 C 217.383 268.110,217.636 267.836,217.845 267.502 C 218.159 266.999,218.159 266.934,217.842 267.125 C 217.583 267.281,217.599 267.184,217.893 266.822 C 218.131 266.529,218.285 266.049,218.235 265.755 C 218.186 265.460,218.352 265.140,218.605 265.043 C 218.915 264.924,219.004 264.676,218.879 264.280 C 218.733 263.821,218.794 263.732,219.159 263.872 C 219.533 264.016,219.625 263.853,219.625 263.050 C 219.625 262.500,219.755 262.049,219.913 262.049 C 220.072 262.049,220.202 261.912,220.202 261.743 C 220.202 261.575,220.059 261.526,219.883 261.635 C 219.708 261.743,219.758 261.523,219.993 261.147 C 220.377 260.534,220.819 259.227,220.910 258.442 C 220.928 258.283,220.809 258.058,220.645 257.941 C 220.453 257.804,220.475 257.727,220.707 257.724 C 220.926 257.722,221.068 257.323,221.068 256.710 C 221.068 256.154,221.165 255.700,221.284 255.699 C 221.403 255.699,221.528 255.309,221.561 254.833 C 221.595 254.358,221.508 253.968,221.368 253.968 C 221.229 253.968,221.244 253.497,221.404 252.921 C 221.563 252.345,221.629 251.630,221.552 251.333 C 221.474 251.036,221.528 250.866,221.672 250.955 C 221.816 251.044,221.934 250.784,221.934 250.378 C 221.934 249.914,221.773 249.639,221.501 249.639 C 221.263 249.639,221.068 249.509,221.068 249.351 C 221.068 249.192,221.170 249.062,221.296 249.062 C 221.421 249.062,221.520 248.212,221.517 247.172 C 221.513 246.133,221.465 245.419,221.409 245.585 C 221.159 246.335,220.877 245.777,220.981 244.740 C 221.044 244.109,220.955 243.329,220.783 243.008 C 220.611 242.687,220.577 242.424,220.708 242.424 C 220.838 242.424,220.964 242.167,220.988 241.853 C 221.012 241.539,220.887 241.312,220.711 241.348 C 220.503 241.391,220.416 240.921,220.464 240.012 C 220.509 239.162,220.428 238.677,220.258 238.782 C 219.835 239.044,219.468 238.349,219.485 237.318 C 219.496 236.646,219.409 236.472,219.163 236.677 C 218.915 236.882,218.844 236.710,218.898 236.029 C 218.948 235.388,218.765 234.879,218.303 234.381 C 217.936 233.985,217.701 233.555,217.781 233.425 C 217.862 233.295,217.782 233.189,217.605 233.189 C 217.427 233.189,217.354 233.073,217.442 232.930 C 217.698 232.516,216.919 230.962,216.522 231.096 C 216.176 231.212,216.040 230.854,216.140 230.087 C 216.166 229.888,216.061 229.726,215.907 229.726 C 215.752 229.726,215.397 229.206,215.117 228.571 C 214.837 227.937,214.503 227.417,214.374 227.417 C 214.246 227.417,214.141 227.236,214.141 227.015 C 214.141 226.794,213.938 226.535,213.690 226.440 C 213.442 226.345,213.311 226.150,213.400 226.006 C 213.488 225.863,213.367 225.671,213.130 225.580 C 212.892 225.489,212.698 225.216,212.698 224.973 C 212.698 224.730,212.582 224.531,212.439 224.531 C 212.100 224.531,210.101 222.532,210.101 222.193 C 210.101 222.051,209.977 221.934,209.826 221.934 C 209.675 221.934,209.100 221.469,208.549 220.901 C 207.997 220.333,207.309 219.829,207.020 219.781 C 206.730 219.732,206.526 219.547,206.566 219.370 C 206.605 219.193,206.443 219.048,206.205 219.048 C 205.967 219.048,205.772 218.918,205.772 218.759 C 205.772 218.600,205.591 218.470,205.370 218.470 C 205.149 218.470,204.890 218.267,204.795 218.019 C 204.700 217.771,204.490 217.649,204.329 217.749 C 204.168 217.848,203.958 217.727,203.863 217.479 C 203.768 217.230,203.518 217.027,203.309 217.027 C 203.099 217.027,202.724 216.824,202.476 216.576 C 202.228 216.328,201.893 216.206,201.732 216.306 C 201.571 216.405,201.361 216.284,201.266 216.036 C 201.171 215.787,200.912 215.584,200.691 215.584 C 200.470 215.584,200.289 215.482,200.289 215.357 C 200.289 215.232,199.998 215.108,199.644 215.081 C 199.289 215.055,198.953 214.896,198.897 214.730 C 198.842 214.563,198.678 214.500,198.532 214.590 C 198.387 214.679,198.268 214.615,198.268 214.447 C 198.268 214.279,197.944 214.141,197.547 214.141 C 197.150 214.141,196.825 214.039,196.825 213.914 C 196.825 213.789,196.408 213.655,195.899 213.616 C 195.389 213.578,194.885 213.404,194.778 213.231 C 194.671 213.058,194.025 212.869,193.343 212.811 C 192.660 212.753,192.028 212.588,191.938 212.444 C 191.533 211.793,177.395 211.455,166.234 211.829 M244.160 218.237 C 244.163 219.333,244.244 219.646,244.444 219.336 C 244.812 218.767,244.812 217.110,244.444 216.883 C 244.266 216.773,244.158 217.288,244.160 218.237 M243.902 226.768 L 243.938 230.447 244.339 228.139 C 244.739 225.836,244.625 223.088,244.129 223.088 C 243.984 223.088,243.883 224.735,243.902 226.768 M244.355 225.902 C 244.282 226.180,244.223 225.952,244.223 225.397 C 244.223 224.841,244.282 224.614,244.355 224.892 C 244.427 225.170,244.427 225.624,244.355 225.902 M244.156 237.824 C 244.156 238.916,244.264 239.505,244.444 239.394 C 244.603 239.296,244.733 238.509,244.733 237.645 C 244.733 236.782,244.603 236.075,244.444 236.075 C 244.284 236.075,244.156 236.850,244.156 237.824 M244.156 242.569 C 244.156 243.124,244.207 243.579,244.269 243.579 C 244.331 243.579,244.434 243.124,244.499 242.569 C 244.564 242.013,244.513 241.558,244.386 241.558 C 244.260 241.558,244.156 242.013,244.156 242.569 M244.337 245.222 C 244.229 246.009,244.273 246.698,244.442 246.867 C 244.638 247.062,244.733 246.617,244.733 245.512 C 244.733 243.514,244.586 243.406,244.337 245.222 M244.342 254.925 C 244.207 256.800,244.163 258.400,244.244 258.481 C 244.466 258.704,244.792 254.604,244.683 252.958 C 244.618 251.976,244.509 252.604,244.342 254.925 " stroke="none" fill="#45c0c5" fill-rule="evenodd"></path><path id="path1" d="M84.411 37.951 C 84.411 58.903,84.446 67.432,84.488 56.904 C 84.530 46.376,84.530 29.233,84.488 18.809 C 84.446 8.385,84.411 16.999,84.411 37.951 M86.510 38.536 L 86.436 77.072 94.156 77.047 C 98.735 77.032,101.891 76.911,101.912 76.750 C 101.932 76.601,101.981 76.349,102.020 76.190 C 102.060 76.032,102.109 68.694,102.128 59.885 L 102.165 43.867 117.749 43.867 L 133.333 43.867 133.333 60.462 L 133.333 77.056 142.280 77.056 L 151.227 77.056 151.227 38.528 L 151.227 0.000 142.280 0.000 L 133.333 0.000 133.333 13.997 L 133.333 27.994 117.605 27.994 L 101.876 27.994 101.808 13.925 L 101.740 -0.144 101.587 13.997 L 101.435 28.139 101.367 14.069 L 101.299 0.000 93.941 0.000 L 86.584 0.000 86.510 38.536 M83.567 76.394 C 83.471 76.645,83.460 76.918,83.543 77.001 C 83.626 77.084,83.696 76.968,83.699 76.744 C 83.702 76.410,83.748 76.405,83.947 76.720 C 84.145 77.033,84.222 77.024,84.357 76.671 C 84.449 76.433,84.348 76.171,84.133 76.088 C 83.918 76.006,83.663 76.144,83.567 76.394 M87.446 105.838 L 86.436 105.943 86.436 144.313 L 86.436 182.684 87.302 182.729 C 87.778 182.754,88.520 182.800,88.951 182.830 C 89.383 182.861,89.674 182.787,89.599 182.665 C 89.427 182.387,89.416 106.231,89.587 105.953 C 89.729 105.725,88.950 105.683,87.446 105.838 M142.424 105.916 C 142.536 106.096,141.951 106.205,140.868 106.205 C 139.708 106.205,139.058 106.335,138.903 106.599 C 138.687 106.969,138.094 107.143,135.643 107.557 C 135.088 107.651,134.364 107.905,134.033 108.122 C 133.702 108.338,133.363 108.447,133.279 108.363 C 133.196 108.280,132.963 108.409,132.762 108.651 C 132.561 108.893,132.066 109.091,131.663 109.091 C 131.259 109.091,131.014 109.176,131.118 109.281 C 131.223 109.386,130.568 109.845,129.662 110.302 C 128.756 110.759,127.933 111.266,127.832 111.429 C 127.731 111.593,127.423 111.760,127.149 111.800 C 126.874 111.840,126.562 111.995,126.456 112.143 C 126.201 112.499,124.186 113.997,123.962 113.997 C 123.866 113.997,123.220 114.582,122.526 115.296 C 121.832 116.010,121.101 116.595,120.901 116.595 C 120.702 116.595,120.627 116.683,120.735 116.791 C 120.970 117.026,119.508 118.615,119.057 118.615 C 118.883 118.615,118.590 119.016,118.405 119.507 C 118.186 120.086,117.946 120.324,117.719 120.184 C 117.512 120.056,117.446 120.090,117.556 120.268 C 117.729 120.548,116.728 122.106,116.239 122.318 C 116.117 122.371,116.017 122.650,116.017 122.937 C 116.017 123.224,115.814 123.537,115.566 123.632 C 115.318 123.728,115.189 123.926,115.280 124.073 C 115.371 124.220,115.249 124.536,115.010 124.776 C 114.770 125.015,114.574 125.350,114.574 125.521 C 114.574 125.691,114.453 125.830,114.306 125.830 C 114.158 125.830,113.993 126.122,113.938 126.479 C 113.884 126.836,113.707 127.105,113.546 127.077 C 113.386 127.048,113.227 127.347,113.195 127.741 C 113.162 128.135,113.004 128.702,112.845 129.001 C 112.685 129.299,112.554 129.808,112.554 130.131 C 112.554 130.490,112.410 130.663,112.183 130.575 C 111.935 130.480,111.788 130.745,111.741 131.373 C 111.701 131.891,111.543 132.439,111.390 132.593 C 111.237 132.746,111.111 133.419,111.111 134.089 C 111.111 134.758,110.966 135.354,110.789 135.413 C 110.597 135.477,110.466 136.249,110.466 137.313 C 110.466 138.303,110.338 139.105,110.180 139.105 C 110.023 139.105,109.968 139.296,110.058 139.529 C 110.147 139.762,110.096 140.029,109.944 140.123 C 109.790 140.218,109.668 142.063,109.668 144.300 C 109.668 146.538,109.790 148.382,109.944 148.477 C 110.096 148.571,110.147 148.838,110.058 149.071 C 109.968 149.304,110.023 149.495,110.180 149.495 C 110.338 149.495,110.466 150.298,110.466 151.287 C 110.466 152.352,110.597 153.123,110.789 153.187 C 110.966 153.246,111.111 153.842,111.111 154.512 C 111.111 155.181,111.237 155.854,111.390 156.008 C 111.543 156.161,111.701 156.710,111.741 157.227 C 111.788 157.855,111.935 158.120,112.183 158.025 C 112.433 157.929,112.554 158.157,112.554 158.722 C 112.554 159.184,112.684 159.642,112.843 159.740 C 113.001 159.838,113.131 160.115,113.131 160.355 C 113.131 160.595,113.326 160.986,113.564 161.224 C 113.802 161.463,113.997 161.916,113.997 162.231 C 113.997 162.546,114.127 162.724,114.286 162.626 C 114.444 162.528,114.574 162.715,114.574 163.042 C 114.574 163.369,114.690 163.636,114.832 163.636 C 114.973 163.636,115.170 163.961,115.270 164.358 C 115.370 164.755,115.579 165.079,115.734 165.079 C 115.890 165.079,116.017 165.265,116.017 165.492 C 116.017 165.719,116.472 166.386,117.027 166.975 C 117.583 167.564,118.040 168.190,118.042 168.366 C 118.050 168.853,120.549 171.415,120.798 171.191 C 120.918 171.084,120.931 171.230,120.829 171.516 C 120.726 171.802,120.752 171.967,120.887 171.884 C 121.022 171.800,121.703 172.359,122.399 173.126 C 123.095 173.893,123.959 174.613,124.319 174.727 C 124.678 174.840,124.898 175.054,124.807 175.201 C 124.716 175.348,124.844 175.469,125.091 175.469 C 125.339 175.469,125.541 175.599,125.541 175.758 C 125.541 175.916,125.736 176.046,125.974 176.046 C 126.212 176.046,126.407 176.174,126.407 176.329 C 126.407 176.485,126.732 176.694,127.128 176.793 C 127.525 176.893,127.850 177.090,127.850 177.232 C 127.850 177.373,128.034 177.489,128.259 177.489 C 128.484 177.489,128.711 177.587,128.764 177.706 C 128.878 177.962,131.843 179.458,132.466 179.573 C 132.704 179.618,133.034 179.825,133.199 180.035 C 133.364 180.244,133.625 180.391,133.777 180.361 C 134.383 180.242,134.801 180.390,134.632 180.664 C 134.524 180.838,134.923 180.952,135.642 180.952 C 136.361 180.952,136.760 181.066,136.652 181.241 C 136.545 181.415,136.926 181.530,137.610 181.530 C 138.235 181.530,138.888 181.701,139.062 181.911 C 139.236 182.120,140.041 182.322,140.850 182.359 C 141.660 182.396,142.646 182.549,143.042 182.699 C 144.018 183.070,154.026 183.057,154.257 182.684 C 154.355 182.525,154.947 182.395,155.573 182.395 C 156.288 182.395,156.712 182.261,156.714 182.035 C 156.718 181.762,156.778 181.768,156.961 182.056 C 157.158 182.367,157.285 182.356,157.644 181.998 C 157.886 181.755,158.614 181.526,159.262 181.488 C 160.051 181.441,160.356 181.317,160.186 181.113 C 160.014 180.906,160.335 180.822,161.187 180.851 C 162.188 180.885,162.408 180.807,162.277 180.465 C 162.164 180.170,162.282 180.055,162.658 180.095 C 163.627 180.198,164.251 180.093,164.102 179.851 C 164.022 179.721,164.264 179.282,164.640 178.876 C 165.165 178.310,165.246 178.059,164.986 177.797 C 164.725 177.534,164.747 177.493,165.079 177.620 C 165.463 177.765,165.503 174.023,165.432 144.808 C 165.349 110.272,165.343 110.534,166.208 110.534 C 166.506 110.534,166.819 110.351,166.905 110.128 C 167.038 109.780,166.951 109.780,166.286 110.126 C 165.303 110.640,165.283 110.638,164.888 110.005 C 164.626 109.586,164.642 109.476,164.963 109.476 C 165.186 109.476,165.368 109.584,165.368 109.716 C 165.368 109.848,165.514 109.957,165.692 109.957 C 165.916 109.957,165.905 109.823,165.657 109.524 C 165.225 109.004,164.174 108.957,163.694 109.437 C 163.269 109.863,163.245 109.534,163.647 108.783 C 163.912 108.287,163.846 108.225,163.052 108.225 C 162.483 108.225,162.230 108.111,162.353 107.912 C 162.476 107.713,162.297 107.628,161.865 107.681 C 161.490 107.726,160.900 107.607,160.553 107.417 C 160.206 107.226,159.322 107.071,158.588 107.071 C 157.757 107.071,157.322 106.960,157.434 106.777 C 157.534 106.616,157.769 106.572,157.956 106.679 C 158.144 106.787,158.194 106.761,158.068 106.623 C 157.941 106.484,157.032 106.333,156.047 106.286 C 155.063 106.239,154.214 106.072,154.161 105.914 C 154.101 105.737,151.809 105.628,148.155 105.628 C 144.289 105.628,142.308 105.727,142.424 105.916 M168.711 111.503 C 168.822 111.791,169.192 111.964,169.656 111.943 C 170.257 111.917,170.297 111.880,169.841 111.768 C 169.524 111.690,169.099 111.492,168.897 111.328 C 168.620 111.103,168.574 111.146,168.711 111.503 M71.573 127.128 C 71.573 127.525,71.411 127.852,71.212 127.854 C 70.925 127.858,70.924 127.905,71.211 128.087 C 71.492 128.266,71.586 134.121,71.645 155.139 L 71.720 181.962 71.791 154.185 C 71.830 138.907,71.797 126.407,71.717 126.407 C 71.638 126.407,71.573 126.732,71.573 127.128 M167.574 177.629 C 167.484 177.864,167.243 178.015,167.038 177.965 C 166.834 177.914,166.765 177.927,166.885 177.994 C 167.296 178.223,166.793 178.619,166.321 178.438 C 166.007 178.317,165.920 178.369,166.059 178.595 C 166.358 179.078,166.577 179.020,167.419 178.240 C 167.829 177.860,168.412 177.485,168.714 177.408 C 169.121 177.304,169.066 177.259,168.501 177.234 C 168.068 177.215,167.667 177.386,167.574 177.629 M86.510 249.495 L 86.584 287.446 84.923 287.498 L 83.261 287.550 84.703 287.661 C 85.558 287.727,86.240 287.940,86.377 288.186 C 86.734 288.825,164.615 288.808,165.840 288.169 L 166.667 287.738 165.945 287.736 L 165.224 287.735 165.298 250.085 L 165.372 212.436 167.318 212.335 C 168.555 212.271,167.792 212.191,165.224 212.116 L 161.183 211.998 166.234 211.833 C 169.012 211.742,152.193 211.640,128.860 211.606 L 86.436 211.544 86.510 249.495 M243.988 217.749 C 243.988 220.765,244.031 221.959,244.083 220.403 C 244.135 218.848,244.134 216.380,244.082 214.920 C 244.030 213.460,243.987 214.733,243.988 217.749 M243.867 262.049 C 243.867 262.843,243.997 263.492,244.156 263.492 C 244.315 263.492,244.444 262.843,244.444 262.049 C 244.444 261.255,244.315 260.606,244.156 260.606 C 243.997 260.606,243.867 261.255,243.867 262.049 M244.517 265.368 C 244.520 266.003,244.580 266.229,244.649 265.870 C 244.718 265.511,244.715 264.991,244.643 264.715 C 244.571 264.439,244.514 264.733,244.517 265.368 " stroke="none" fill="#5fc4b8" fill-rule="evenodd"></path><path id="path2" d="M102.010 13.997 C 102.010 21.775,102.047 24.915,102.092 20.976 C 102.138 17.036,102.137 10.672,102.092 6.834 C 102.047 2.996,102.009 6.219,102.010 13.997 M302.383 38.073 L 302.309 76.164 303.463 76.271 C 304.098 76.330,303.319 76.424,301.732 76.481 C 294.644 76.733,311.377 76.983,337.752 77.019 C 356.314 77.044,365.631 76.959,365.512 76.768 C 365.401 76.588,365.979 76.479,367.047 76.479 C 367.990 76.479,369.246 76.276,369.840 76.028 C 370.433 75.780,371.103 75.648,371.329 75.735 C 371.554 75.821,371.813 75.700,371.903 75.464 C 372.003 75.205,372.445 75.036,373.023 75.036 C 373.548 75.036,374.021 74.914,374.074 74.765 C 374.127 74.616,374.537 74.446,374.985 74.387 C 375.433 74.328,375.888 74.138,375.995 73.965 C 376.103 73.792,376.450 73.605,376.768 73.550 C 377.085 73.494,377.421 73.345,377.515 73.218 C 377.609 73.091,377.966 72.966,378.309 72.940 C 378.652 72.914,378.932 72.800,378.932 72.685 C 378.932 72.571,379.194 72.395,379.514 72.293 C 379.833 72.192,380.020 71.988,379.929 71.841 C 379.838 71.693,380.031 71.573,380.358 71.573 C 380.685 71.573,380.952 71.452,380.952 71.304 C 380.952 71.156,381.245 70.942,381.602 70.830 C 381.959 70.717,382.461 70.383,382.718 70.089 C 382.975 69.794,383.387 69.553,383.635 69.553 C 383.882 69.553,384.340 69.228,384.653 68.831 C 384.965 68.434,385.342 68.110,385.491 68.110 C 385.639 68.110,385.935 67.785,386.147 67.388 C 386.360 66.991,386.647 66.667,386.786 66.667 C 387.141 66.667,388.456 65.313,388.456 64.948 C 388.456 64.782,388.595 64.646,388.765 64.646 C 389.165 64.646,389.899 63.912,389.899 63.513 C 389.899 63.343,390.047 63.203,390.228 63.203 C 390.671 63.203,391.321 62.312,391.333 61.688 C 391.338 61.411,391.472 61.183,391.631 61.183 C 391.789 61.183,391.919 60.988,391.919 60.750 C 391.919 60.512,392.078 60.350,392.273 60.390 C 392.468 60.429,392.672 60.170,392.726 59.812 C 392.781 59.455,392.946 59.163,393.094 59.163 C 393.241 59.163,393.362 58.968,393.362 58.730 C 393.362 58.492,393.490 58.297,393.645 58.297 C 393.801 58.297,394.010 57.973,394.109 57.578 C 394.208 57.182,394.406 56.930,394.547 57.018 C 394.689 57.105,394.805 56.845,394.805 56.438 C 394.805 56.032,394.926 55.700,395.075 55.700 C 395.223 55.700,395.385 55.343,395.435 54.906 C 395.486 54.470,395.669 54.138,395.844 54.170 C 396.018 54.202,396.173 53.815,396.187 53.310 C 396.202 52.806,396.351 52.347,396.519 52.291 C 396.688 52.234,396.825 51.901,396.825 51.549 C 396.825 51.197,396.977 50.758,397.162 50.573 C 397.347 50.388,397.548 49.745,397.609 49.144 C 397.670 48.543,397.843 48.009,397.994 47.956 C 398.145 47.903,398.268 47.091,398.268 46.152 C 398.268 45.206,398.397 44.444,398.557 44.444 C 398.740 44.444,398.846 42.232,398.846 38.384 C 398.846 34.536,398.740 32.323,398.557 32.323 C 398.397 32.323,398.268 31.562,398.268 30.616 C 398.268 29.677,398.133 28.863,397.967 28.808 C 397.802 28.753,397.644 28.142,397.616 27.452 C 397.587 26.737,397.406 26.135,397.196 26.054 C 396.992 25.976,396.825 25.464,396.825 24.916 C 396.825 24.325,396.708 23.992,396.537 24.098 C 396.373 24.200,396.248 23.954,396.248 23.529 C 396.248 23.118,396.053 22.707,395.815 22.615 C 395.577 22.524,395.382 22.211,395.382 21.920 C 395.382 21.629,395.253 21.310,395.094 21.212 C 394.935 21.114,394.805 20.717,394.805 20.329 C 394.805 19.942,394.675 19.625,394.517 19.625 C 394.358 19.625,394.228 19.365,394.228 19.048 C 394.228 18.727,394.036 18.470,393.795 18.470 C 393.526 18.470,393.362 18.198,393.362 17.749 C 393.362 17.352,393.232 17.027,393.074 17.027 C 392.915 17.027,392.785 16.825,392.785 16.577 C 392.785 16.330,392.661 16.204,392.509 16.298 C 392.357 16.392,391.972 15.913,391.654 15.233 C 391.335 14.553,391.069 14.127,391.063 14.286 C 391.048 14.670,389.364 12.694,389.157 12.049 C 389.067 11.771,388.801 11.544,388.564 11.544 C 388.327 11.544,388.214 11.413,388.313 11.253 C 388.496 10.957,387.764 10.023,387.531 10.256 C 387.461 10.326,387.032 9.995,386.577 9.521 C 386.123 9.046,385.636 8.658,385.495 8.658 C 385.165 8.658,384.416 7.909,384.416 7.578 C 384.416 7.437,383.961 7.105,383.405 6.840 C 382.850 6.575,382.395 6.227,382.395 6.065 C 382.395 5.904,382.201 5.772,381.962 5.772 C 381.724 5.772,381.530 5.642,381.530 5.483 C 381.530 5.325,381.270 5.195,380.952 5.195 C 380.635 5.195,380.375 5.065,380.375 4.906 C 380.375 4.747,380.194 4.618,379.973 4.618 C 379.752 4.618,379.496 4.423,379.405 4.185 C 379.314 3.947,378.975 3.752,378.653 3.752 C 378.330 3.752,378.066 3.650,378.066 3.526 C 378.066 3.402,377.719 3.272,377.294 3.237 C 376.870 3.201,376.308 2.978,376.045 2.741 C 375.783 2.503,375.351 2.309,375.086 2.309 C 374.820 2.309,374.603 2.179,374.603 2.020 C 374.603 1.861,374.278 1.732,373.882 1.732 C 373.485 1.732,373.160 1.602,373.160 1.443 C 373.160 1.284,372.576 1.154,371.861 1.154 C 370.972 1.154,370.563 1.033,370.563 0.770 C 370.563 0.190,372.061 0.219,336.149 0.097 L 302.457 -0.018 302.383 38.073 M252.422 51.948 C 252.603 52.186,252.816 52.641,252.894 52.958 C 253.028 53.506,253.037 53.505,253.069 52.921 C 253.087 52.584,252.875 52.129,252.597 51.911 C 252.158 51.567,252.135 51.572,252.422 51.948 M304.618 105.907 C 303.030 106.009,301.926 106.120,302.165 106.153 C 302.549 106.207,302.549 106.245,302.165 106.494 C 301.876 106.680,301.852 106.775,302.092 106.778 C 302.379 106.781,302.453 114.476,302.453 144.276 C 302.453 174.001,302.378 181.800,302.092 181.916 C 301.894 181.996,302.316 182.090,303.030 182.125 L 304.329 182.189 303.175 182.395 C 302.122 182.584,303.475 182.647,312.339 182.826 L 313.711 182.853 313.637 144.313 L 313.564 105.772 310.534 105.746 C 308.867 105.732,306.205 105.805,304.618 105.907 M343.794 144.228 L 343.867 182.828 371.356 182.902 L 398.846 182.975 398.846 174.749 L 398.846 166.522 380.231 166.522 L 361.616 166.522 361.616 159.163 L 361.616 151.804 378.211 151.804 L 394.805 151.804 394.805 143.579 L 394.805 135.354 378.211 135.354 L 361.616 135.354 361.616 128.716 L 361.616 122.078 379.221 122.078 L 396.825 122.078 396.825 113.853 L 396.825 105.628 370.273 105.628 L 343.721 105.628 343.794 144.228 M339.586 211.736 C 339.481 211.842,339.394 229.180,339.394 250.265 L 339.394 288.600 359.524 288.579 C 379.308 288.559,382.688 288.443,382.910 287.779 C 382.973 287.587,383.624 287.446,384.440 287.446 C 385.220 287.446,385.859 287.316,385.859 287.157 C 385.859 286.999,386.163 286.869,386.536 286.869 C 387.275 286.869,388.951 286.117,389.562 285.512 C 389.773 285.303,390.065 285.206,390.211 285.296 C 390.357 285.386,390.476 285.322,390.476 285.154 C 390.476 284.986,390.657 284.848,390.878 284.848 C 391.099 284.848,391.355 284.654,391.446 284.416 C 391.538 284.177,391.786 283.983,391.998 283.983 C 392.210 283.983,392.880 283.528,393.486 282.973 C 394.093 282.417,394.735 281.962,394.914 281.962 C 395.092 281.962,395.680 281.312,396.221 280.519 C 396.762 279.726,397.314 279.076,397.448 279.076 C 397.582 279.076,397.691 278.874,397.691 278.627 C 397.691 278.379,397.821 278.257,397.980 278.355 C 398.143 278.456,398.268 278.214,398.268 277.795 C 398.268 277.389,398.398 277.056,398.557 277.056 C 398.716 277.056,398.846 276.732,398.846 276.335 C 398.846 275.924,398.996 275.644,399.194 275.685 C 399.744 275.799,399.956 273.633,399.976 267.677 C 399.998 261.334,399.810 259.163,399.238 259.163 C 399.012 259.163,398.846 258.858,398.846 258.442 C 398.846 258.045,398.716 257.720,398.557 257.720 C 398.398 257.720,398.268 257.460,398.268 257.143 C 398.268 256.825,398.139 256.566,397.980 256.566 C 397.821 256.566,397.691 256.438,397.691 256.281 C 397.691 255.884,396.156 253.704,395.867 253.691 C 395.512 253.674,394.805 252.901,394.805 252.529 C 394.805 252.349,394.690 252.274,394.549 252.361 C 394.409 252.448,394.133 252.326,393.937 252.089 C 393.741 251.853,393.401 251.659,393.183 251.659 C 392.964 251.659,392.785 251.465,392.785 251.227 C 392.785 250.988,392.616 250.794,392.410 250.794 C 391.879 250.794,390.481 250.115,390.478 249.856 C 390.477 249.737,390.036 249.639,389.497 249.639 C 388.893 249.639,388.454 249.473,388.352 249.206 C 388.256 248.956,387.824 248.773,387.328 248.773 C 386.856 248.773,386.390 248.644,386.291 248.485 C 386.193 248.326,386.320 248.196,386.572 248.196 C 386.825 248.196,387.106 248.001,387.197 247.763 C 387.289 247.525,387.609 247.330,387.910 247.330 C 388.210 247.330,388.456 247.224,388.456 247.095 C 388.456 246.965,388.946 246.584,389.545 246.247 C 390.931 245.469,391.919 244.614,391.919 244.194 C 391.919 244.014,392.049 243.867,392.208 243.867 C 392.736 243.867,394.805 241.568,394.805 240.981 C 394.805 240.664,394.935 240.404,395.094 240.404 C 395.253 240.404,395.382 240.079,395.382 239.683 C 395.382 239.286,395.550 238.961,395.754 238.961 C 395.966 238.961,396.156 238.559,396.196 238.023 C 396.235 237.507,396.392 237.042,396.546 236.989 C 396.931 236.857,396.922 225.397,396.537 225.397 C 396.378 225.397,396.248 224.938,396.248 224.378 C 396.248 223.738,396.087 223.297,395.815 223.192 C 395.577 223.101,395.382 222.780,395.382 222.480 C 395.382 222.179,395.253 221.934,395.094 221.934 C 394.935 221.934,394.805 221.685,394.805 221.381 C 394.805 221.077,394.353 220.363,393.800 219.794 C 393.247 219.225,392.933 218.759,393.101 218.759 C 393.269 218.759,393.017 218.369,392.541 217.893 C 392.065 217.417,391.488 217.027,391.260 217.027 C 391.032 217.027,390.602 216.703,390.304 216.306 C 390.006 215.909,389.558 215.584,389.308 215.584 C 389.058 215.584,388.579 215.329,388.243 215.016 C 387.814 214.616,387.590 214.551,387.490 214.799 C 387.409 215.000,387.337 214.934,387.324 214.646 C 387.311 214.347,387.074 214.141,386.741 214.141 C 386.433 214.141,386.101 214.012,386.003 213.853 C 385.905 213.694,385.508 213.564,385.120 213.564 C 384.733 213.564,384.416 213.451,384.416 213.313 C 384.416 213.175,383.766 212.975,382.973 212.870 C 382.179 212.765,381.530 212.572,381.530 212.442 C 381.530 212.312,380.523 212.180,379.293 212.148 C 378.063 212.116,377.013 211.967,376.960 211.817 C 376.851 211.506,339.896 211.426,339.586 211.736 M295.046 215.961 C 295.046 216.177,295.222 216.354,295.439 216.354 C 295.655 216.354,295.787 216.221,295.733 216.059 C 295.580 215.599,295.046 215.523,295.046 215.961 M297.739 217.220 C 297.460 217.499,297.503 217.954,297.792 217.776 C 297.926 217.693,298.311 217.880,298.646 218.192 C 299.372 218.868,299.856 218.922,299.856 218.326 C 299.856 217.909,299.533 217.773,298.773 217.872 C 298.575 217.897,298.413 217.718,298.413 217.473 C 298.413 217.011,298.075 216.884,297.739 217.220 M301.203 219.240 C 300.900 219.542,300.978 219.968,301.299 219.769 C 301.457 219.671,301.587 219.793,301.587 220.041 C 301.587 220.288,301.642 220.491,301.708 220.491 C 301.774 220.491,302.006 220.559,302.223 220.642 C 302.478 220.740,302.618 220.584,302.618 220.202 C 302.618 219.839,302.475 219.665,302.247 219.753 C 302.043 219.831,301.876 219.705,301.876 219.471 C 301.876 219.029,301.532 218.910,301.203 219.240 M302.780 220.877 C 302.549 221.156,302.465 229.445,302.480 250.531 C 302.492 266.628,302.575 279.603,302.665 279.365 C 302.976 278.544,304.473 277.184,304.473 277.723 C 304.473 277.991,304.322 278.211,304.137 278.211 C 303.951 278.211,303.883 278.294,303.985 278.396 C 304.281 278.692,305.066 277.891,304.982 277.379 C 304.930 277.060,305.089 276.937,305.483 276.990 C 305.831 277.036,306.221 276.807,306.462 276.412 C 306.863 275.760,306.862 275.759,306.246 276.307 C 305.903 276.612,305.628 276.708,305.628 276.524 C 305.628 275.996,305.754 275.752,305.988 275.830 C 306.108 275.869,306.205 275.707,306.205 275.469 C 306.205 275.231,306.342 275.036,306.511 275.036 C 306.679 275.036,306.736 275.166,306.638 275.325 C 306.540 275.483,306.659 275.613,306.904 275.613 C 307.148 275.613,307.430 275.289,307.529 274.894 C 307.628 274.498,307.811 274.237,307.934 274.313 C 308.058 274.390,308.230 274.184,308.315 273.857 C 308.401 273.530,308.743 273.191,309.075 273.104 C 309.532 272.984,309.654 272.762,309.576 272.187 C 309.494 271.583,309.637 271.359,310.281 271.087 C 310.863 270.840,311.074 270.559,311.039 270.077 C 311.011 269.709,311.308 268.889,311.698 268.254 C 312.089 267.619,312.367 267.055,312.317 267.001 C 312.268 266.947,312.440 266.747,312.700 266.557 C 312.959 266.367,313.130 266.022,313.080 265.790 C 313.029 265.558,313.130 265.394,313.305 265.426 C 313.479 265.457,313.609 265.133,313.593 264.704 C 313.577 264.276,313.783 263.761,314.050 263.561 C 314.341 263.344,314.525 262.828,314.509 262.278 C 314.495 261.772,314.634 261.308,314.817 261.247 C 315.002 261.185,315.152 260.575,315.152 259.885 C 315.152 259.154,315.302 258.573,315.512 258.488 C 315.801 258.372,315.801 258.338,315.512 258.320 C 315.076 258.292,315.023 257.431,315.457 257.431 C 315.625 257.431,315.683 257.561,315.584 257.720 C 315.486 257.879,315.526 258.009,315.673 258.009 C 315.822 258.009,315.926 256.737,315.907 255.150 C 315.888 253.578,315.957 252.343,316.059 252.407 C 316.162 252.470,316.322 252.321,316.417 252.076 C 316.515 251.820,316.466 251.705,316.303 251.806 C 316.146 251.903,316.017 251.772,316.017 251.515 C 316.017 251.258,316.147 251.128,316.306 251.227 C 316.465 251.325,316.595 251.267,316.595 251.099 C 316.595 250.931,316.465 250.794,316.306 250.794 C 316.147 250.794,316.017 250.656,316.017 250.488 C 316.017 250.320,316.137 250.257,316.284 250.347 C 316.638 250.566,316.547 247.821,316.191 247.571 C 316.041 247.465,315.921 246.134,315.925 244.613 C 315.929 243.092,315.814 241.847,315.669 241.847 C 315.524 241.847,315.499 242.009,315.614 242.208 C 315.728 242.406,315.709 242.467,315.573 242.342 C 315.436 242.218,315.273 241.438,315.212 240.611 C 315.150 239.783,314.955 238.931,314.780 238.718 C 314.604 238.505,314.469 237.893,314.479 237.358 C 314.491 236.767,314.295 236.200,313.979 235.914 C 313.686 235.649,313.535 235.246,313.633 234.990 C 313.748 234.691,313.692 234.608,313.469 234.746 C 313.175 234.928,313.042 234.434,313.156 233.582 C 313.170 233.481,313.007 233.288,312.795 233.154 C 312.485 232.957,312.494 232.905,312.843 232.887 C 313.094 232.873,313.003 232.754,312.626 232.603 C 312.269 232.459,311.979 232.175,311.981 231.972 C 311.984 231.709,312.076 231.727,312.297 232.035 C 312.556 232.395,312.580 232.379,312.437 231.939 C 312.343 231.648,312.264 231.259,312.261 231.073 C 312.259 230.877,312.145 230.913,311.988 231.161 C 311.648 231.699,311.222 230.724,311.133 229.204 C 311.121 228.996,310.980 228.907,310.820 229.006 C 310.513 229.195,309.933 228.005,310.152 227.633 C 310.285 227.407,309.828 227.309,309.091 227.405 C 308.781 227.446,308.814 227.345,309.207 227.050 C 309.732 226.657,309.718 226.622,308.887 226.254 C 308.235 225.965,308.050 225.720,308.147 225.272 C 308.251 224.789,308.218 224.757,307.974 225.106 C 307.719 225.469,307.614 225.475,307.299 225.142 C 307.004 224.829,307.001 224.720,307.287 224.615 C 307.833 224.415,307.719 223.916,307.149 224.013 C 306.875 224.060,306.637 223.968,306.619 223.810 C 306.550 223.175,306.130 222.523,305.886 222.674 C 305.744 222.762,305.628 222.682,305.628 222.496 C 305.628 222.310,305.358 222.465,305.029 222.840 C 304.699 223.214,304.512 223.359,304.613 223.160 C 304.721 222.947,304.611 222.799,304.346 222.799 C 303.829 222.799,303.767 222.275,304.208 221.645 C 304.451 221.299,304.478 221.332,304.344 221.813 C 304.227 222.232,304.309 222.415,304.613 222.415 C 305.132 222.415,305.142 222.356,304.747 221.618 C 304.566 221.279,304.305 221.139,304.098 221.268 C 303.441 221.679,303.100 221.587,303.243 221.037 C 303.411 220.396,303.231 220.334,302.780 220.877 M368.632 226.944 C 368.739 227.223,369.440 227.353,371.042 227.390 C 372.284 227.419,373.425 227.566,373.577 227.718 C 373.729 227.870,374.031 227.994,374.249 227.994 C 374.466 227.994,374.825 228.157,375.047 228.355 C 375.921 229.139,376.318 229.437,376.488 229.437 C 376.717 229.437,377.489 230.209,377.489 230.439 C 377.489 230.608,377.788 231.006,378.571 231.880 C 378.935 232.285,379.113 236.929,378.751 236.567 C 378.573 236.389,377.489 238.268,377.489 238.754 C 377.489 239.154,376.755 239.774,376.162 239.876 C 375.860 239.929,375.306 240.296,374.930 240.693 C 374.554 241.089,374.346 241.219,374.467 240.981 C 374.646 240.630,374.615 240.616,374.299 240.909 C 374.085 241.108,373.555 241.270,373.119 241.270 C 372.684 241.270,372.248 241.400,372.150 241.558 C 372.039 241.738,369.276 241.847,364.817 241.847 L 357.663 241.847 357.492 238.826 C 357.398 237.165,357.398 233.724,357.493 231.179 L 357.665 226.551 363.073 226.551 C 367.370 226.551,368.512 226.632,368.632 226.944 M243.964 232.323 C 243.964 233.514,244.015 234.001,244.077 233.405 C 244.140 232.810,244.140 231.836,244.077 231.241 C 244.015 230.646,243.964 231.133,243.964 232.323 M288.889 233.006 C 288.889 233.212,289.084 233.381,289.322 233.381 C 289.560 233.381,289.755 233.287,289.755 233.172 C 289.755 233.057,289.560 232.887,289.322 232.796 C 289.074 232.701,288.889 232.790,288.889 233.006 M293.218 236.992 C 293.218 237.232,293.498 237.676,293.840 237.978 L 294.462 238.528 293.927 237.662 C 293.199 236.484,293.218 236.501,293.218 236.992 M243.933 251.154 C 243.896 256.482,243.979 260.606,244.122 260.606 C 244.413 260.606,244.873 256.898,244.614 256.639 C 244.521 256.546,244.415 256.978,244.379 257.600 C 244.343 258.222,244.242 254.899,244.156 250.216 L 243.998 241.703 243.933 251.154 M221.712 246.753 C 221.712 247.309,221.771 247.536,221.844 247.258 C 221.917 246.981,221.917 246.526,221.844 246.248 C 221.771 245.970,221.712 246.198,221.712 246.753 M297.684 249.399 C 297.776 249.868,297.694 250.225,297.474 250.314 C 297.214 250.419,297.209 250.466,297.458 250.482 C 298.000 250.518,298.151 250.040,297.829 249.305 C 297.543 248.651,297.538 248.654,297.684 249.399 M221.718 253.824 C 221.721 254.459,221.780 254.685,221.849 254.326 C 221.918 253.967,221.916 253.447,221.843 253.171 C 221.771 252.895,221.715 253.189,221.718 253.824 M296.743 255.893 C 296.673 256.743,296.732 256.728,297.229 255.772 C 297.498 255.256,297.489 255.123,297.187 255.123 C 296.978 255.123,296.778 255.469,296.743 255.893 M374.892 258.109 C 374.892 258.347,375.243 258.508,375.797 258.524 C 376.295 258.538,376.841 258.688,377.009 258.856 C 377.178 259.025,377.632 259.163,378.018 259.163 C 378.404 259.163,378.964 259.444,379.261 259.787 C 379.559 260.130,380.093 260.556,380.449 260.733 C 380.805 260.911,381.097 261.219,381.097 261.419 C 381.097 261.618,381.227 261.874,381.385 261.987 C 381.544 262.101,381.716 262.388,381.768 262.626 C 381.819 262.864,381.982 263.102,382.128 263.155 C 382.494 263.287,382.473 267.532,382.107 267.532 C 381.948 267.532,381.818 267.718,381.818 267.945 C 381.818 268.172,381.647 268.529,381.437 268.738 C 381.019 269.156,380.952 269.330,380.952 270.003 C 380.952 270.250,380.823 270.372,380.664 270.274 C 380.505 270.176,380.375 270.298,380.375 270.546 C 380.375 270.793,380.180 270.996,379.942 270.996 C 379.704 270.996,379.509 271.126,379.509 271.284 C 379.509 271.443,379.250 271.573,378.932 271.573 C 378.612 271.573,378.355 271.765,378.355 272.006 C 378.355 272.271,378.085 272.439,377.658 272.439 C 377.274 272.439,376.917 272.562,376.864 272.712 C 376.811 272.862,376.151 273.016,375.397 273.054 C 374.643 273.092,374.026 273.229,374.026 273.358 C 374.026 273.487,370.240 273.593,365.613 273.593 L 357.201 273.593 357.388 270.951 C 357.491 269.498,357.576 265.927,357.576 263.015 L 357.576 257.720 366.234 257.720 C 373.303 257.720,374.892 257.791,374.892 258.109 M295.681 259.332 C 295.182 260.093,295.241 260.528,295.796 260.185 C 295.965 260.080,296.104 259.754,296.104 259.459 C 296.104 259.164,296.266 258.857,296.465 258.777 C 296.695 258.684,296.707 258.623,296.498 258.609 C 296.318 258.596,295.950 258.922,295.681 259.332 M294.848 261.029 C 294.555 261.251,294.392 261.558,294.486 261.711 C 294.580 261.864,294.464 262.063,294.226 262.154 C 293.989 262.245,293.795 262.476,293.795 262.668 C 293.795 263.162,295.154 261.824,295.328 261.158 C 295.408 260.855,295.452 260.610,295.428 260.615 C 295.403 260.620,295.142 260.806,294.848 261.029 M292.560 264.564 C 292.689 264.899,292.632 264.964,292.357 264.794 C 292.097 264.633,292.043 264.668,292.189 264.904 C 292.353 265.170,292.499 265.173,292.811 264.914 C 293.317 264.494,293.316 264.457,292.800 264.259 C 292.506 264.146,292.435 264.237,292.560 264.564 M244.156 268.220 C 244.156 269.410,244.286 270.465,244.444 270.563 C 244.627 270.676,244.733 269.946,244.733 268.577 C 244.733 267.386,244.603 266.332,244.444 266.234 C 244.262 266.121,244.156 266.850,244.156 268.220 M301.587 279.942 C 301.587 280.120,301.457 280.185,301.299 280.087 C 301.140 279.988,301.010 280.060,301.010 280.245 C 301.010 280.430,300.815 280.506,300.577 280.415 C 300.339 280.324,300.144 280.353,300.144 280.480 C 300.144 280.982,300.529 281.047,301.138 280.648 C 301.490 280.417,301.865 280.316,301.971 280.422 C 302.077 280.529,302.165 280.472,302.165 280.296 C 302.165 280.120,302.035 279.896,301.876 279.798 C 301.717 279.700,301.587 279.765,301.587 279.942 " stroke="none" fill="#0fb5de" fill-rule="evenodd"></path><path id="path3" d="M222.799 7.504 L 222.799 15.007 223.737 15.030 C 224.725 15.054,224.638 15.125,223.247 15.435 C 222.010 15.710,222.862 16.134,224.575 16.095 L 225.941 16.064 225.894 8.104 L 225.847 0.144 225.761 7.457 C 225.699 12.770,225.578 14.867,225.320 15.126 C 225.038 15.408,224.982 13.877,225.049 7.741 L 225.135 0.000 223.967 0.000 L 222.799 0.000 222.799 7.504 M281.650 0.119 C 281.584 0.185,280.887 0.296,280.101 0.366 C 279.315 0.436,278.622 0.642,278.561 0.824 C 278.501 1.006,278.080 1.154,277.626 1.154 C 277.173 1.154,276.721 1.284,276.623 1.443 C 276.525 1.602,276.160 1.733,275.813 1.735 C 275.465 1.737,274.615 2.062,273.924 2.457 C 273.234 2.851,272.422 3.175,272.121 3.175 C 271.819 3.175,271.573 3.304,271.573 3.463 C 271.573 3.622,271.309 3.752,270.987 3.752 C 270.664 3.752,270.326 3.947,270.234 4.185 C 270.143 4.423,269.822 4.618,269.522 4.618 C 269.221 4.618,268.975 4.747,268.975 4.906 C 268.975 5.065,268.730 5.195,268.429 5.195 C 268.129 5.195,267.805 5.398,267.710 5.646 C 267.614 5.894,267.406 6.016,267.246 5.918 C 267.086 5.819,266.952 5.908,266.948 6.116 C 266.944 6.324,266.327 6.912,265.577 7.423 C 264.827 7.934,263.661 8.876,262.986 9.515 C 262.312 10.155,261.630 10.678,261.471 10.678 C 261.313 10.678,261.183 10.815,261.183 10.983 C 261.183 11.151,260.529 11.953,259.729 12.765 C 258.929 13.578,258.338 14.408,258.415 14.610 C 258.503 14.839,258.399 14.917,258.138 14.817 C 257.880 14.718,257.720 14.834,257.720 15.121 C 257.720 15.376,257.590 15.584,257.431 15.584 C 257.273 15.584,257.143 15.779,257.143 16.017 C 257.143 16.255,257.013 16.450,256.854 16.450 C 256.696 16.450,256.566 16.714,256.566 17.036 C 256.566 17.359,256.371 17.697,256.133 17.789 C 255.895 17.880,255.700 18.144,255.700 18.374 C 255.700 18.605,255.567 18.711,255.404 18.610 C 255.241 18.510,255.127 18.535,255.150 18.665 C 255.274 19.379,255.069 19.913,254.673 19.913 C 254.425 19.913,254.289 20.020,254.369 20.151 C 254.450 20.281,254.328 20.750,254.098 21.194 C 253.868 21.637,253.680 22.237,253.680 22.527 C 253.680 22.817,253.550 23.134,253.391 23.232 C 253.232 23.330,253.102 23.647,253.102 23.936 C 253.102 24.224,252.908 24.622,252.670 24.820 C 252.431 25.017,252.237 25.545,252.237 25.992 C 252.237 26.440,252.107 26.886,251.948 26.984 C 251.789 27.082,251.659 27.663,251.659 28.276 C 251.659 28.888,251.512 29.438,251.332 29.498 C 251.152 29.558,250.950 30.370,250.884 31.302 C 250.817 32.233,250.653 33.201,250.518 33.453 C 250.161 34.121,250.132 42.407,250.486 42.834 C 250.647 43.028,250.802 43.893,250.830 44.754 C 250.858 45.616,251.009 46.404,251.165 46.506 C 251.322 46.608,251.513 47.355,251.591 48.165 C 251.669 48.976,251.846 49.639,251.985 49.639 C 252.123 49.639,252.237 50.029,252.237 50.505 C 252.237 50.981,252.361 51.371,252.512 51.371 C 252.664 51.371,252.873 51.825,252.977 52.381 C 253.081 52.937,253.282 53.391,253.423 53.391 C 253.564 53.391,253.680 53.788,253.680 54.274 C 253.680 54.789,253.800 55.082,253.968 54.978 C 254.127 54.880,254.257 55.051,254.257 55.359 C 254.257 55.666,254.452 56.079,254.690 56.277 C 254.928 56.475,255.123 56.880,255.123 57.178 C 255.123 57.476,255.253 57.720,255.411 57.720 C 255.570 57.720,255.700 57.884,255.700 58.084 C 255.700 58.284,256.025 58.798,256.421 59.226 C 256.818 59.654,257.143 60.195,257.143 60.428 C 257.143 60.662,257.442 61.089,257.808 61.379 C 258.173 61.668,258.568 62.100,258.685 62.338 C 259.237 63.464,259.662 64.051,259.815 63.899 C 259.907 63.807,260.141 64.035,260.334 64.405 C 260.807 65.309,263.727 68.014,264.719 68.466 C 265.155 68.665,265.512 68.963,265.512 69.128 C 265.512 69.515,267.105 70.461,267.348 70.218 C 267.449 70.117,267.532 70.250,267.532 70.515 C 267.532 70.779,267.727 70.996,267.965 70.996 C 268.203 70.996,268.398 71.126,268.398 71.284 C 268.398 71.443,268.667 71.573,268.996 71.573 C 269.325 71.573,269.775 71.735,269.996 71.934 C 270.998 72.832,271.289 73.016,271.709 73.016 C 272.134 73.016,273.280 73.552,273.593 73.896 C 273.831 74.159,276.318 75.036,276.825 75.036 C 277.085 75.036,277.342 75.172,277.397 75.337 C 277.452 75.503,278.048 75.660,278.720 75.687 C 279.411 75.715,279.942 75.878,279.942 76.064 C 279.942 76.273,280.700 76.413,282.035 76.451 C 283.185 76.484,284.168 76.628,284.219 76.772 C 284.273 76.922,289.444 77.013,296.485 76.986 C 305.028 76.953,307.195 76.889,303.752 76.771 C 299.308 76.618,299.117 76.592,301.732 76.490 C 303.319 76.429,304.098 76.330,303.463 76.271 L 302.309 76.164 302.383 38.082 L 302.457 0.000 292.114 0.000 C 286.425 0.000,281.716 0.054,281.650 0.119 M223.564 29.663 C 223.617 29.748,223.525 29.980,223.360 30.179 C 223.152 30.429,223.153 30.598,223.365 30.729 C 223.760 30.973,224.119 30.049,223.749 29.743 C 223.594 29.614,223.510 29.579,223.564 29.663 M222.690 45.078 C 223.061 45.679,223.918 45.889,223.879 45.369 C 223.854 45.034,223.609 44.848,223.194 44.848 C 222.839 44.848,222.612 44.952,222.690 45.078 M224.466 60.817 C 226.196 60.940,226.254 61.472,224.538 61.472 C 223.272 61.472,222.450 61.718,222.648 62.038 C 222.722 62.157,222.794 65.455,222.809 69.367 L 222.837 76.479 224.911 76.535 C 226.905 76.589,226.874 76.598,224.098 76.776 L 221.212 76.961 224.596 76.964 L 227.980 76.966 227.971 68.817 L 227.961 60.667 225.453 60.688 C 223.881 60.701,223.513 60.749,224.466 60.817 M226.767 72.511 C 226.717 74.455,226.676 72.864,226.676 68.975 C 226.676 65.087,226.717 63.496,226.767 65.440 C 226.817 67.385,226.817 70.566,226.767 72.511 M252.429 105.820 C 252.323 105.926,252.237 106.308,252.237 106.669 C 252.237 107.030,252.107 107.406,251.948 107.504 C 251.789 107.602,251.659 108.072,251.659 108.548 C 251.659 109.051,251.539 109.339,251.371 109.235 C 251.212 109.137,251.073 109.162,251.061 109.290 C 250.975 110.222,250.734 110.982,250.497 111.063 C 250.343 111.116,250.216 111.538,250.216 112.001 C 250.216 112.464,250.087 112.843,249.928 112.843 C 249.769 112.843,249.639 113.232,249.639 113.709 C 249.639 114.185,249.522 114.574,249.379 114.574 C 249.115 114.574,248.499 115.970,248.296 117.027 C 248.196 117.546,247.808 118.514,247.023 120.202 C 246.875 120.519,246.716 121.059,246.668 121.400 C 246.621 121.742,246.427 122.209,246.237 122.437 C 246.048 122.666,245.970 122.930,246.064 123.024 C 246.158 123.118,246.027 123.492,245.773 123.855 C 245.518 124.218,245.310 124.811,245.310 125.172 C 245.310 125.534,245.180 125.830,245.022 125.830 C 244.863 125.830,244.733 126.223,244.733 126.705 C 244.733 127.216,244.553 127.648,244.300 127.746 C 244.062 127.837,243.867 128.230,243.867 128.619 C 243.867 129.104,243.753 129.262,243.506 129.119 C 243.308 129.005,243.238 129.014,243.351 129.139 C 243.464 129.264,243.366 129.820,243.134 130.375 C 242.902 130.930,242.713 131.618,242.713 131.905 C 242.713 132.192,242.551 132.598,242.352 132.808 C 242.154 133.017,241.945 133.514,241.889 133.911 C 241.833 134.307,241.704 134.697,241.601 134.776 C 241.498 134.856,241.369 135.180,241.313 135.498 C 241.258 135.815,241.091 136.150,240.942 136.243 C 240.794 136.335,240.604 136.789,240.521 137.253 C 240.438 137.716,240.248 138.139,240.098 138.191 C 239.949 138.244,239.827 138.731,239.827 139.274 C 239.827 139.816,239.705 140.260,239.557 140.260 C 239.408 140.260,239.246 140.682,239.196 141.198 C 239.142 141.759,238.961 142.107,238.745 142.063 C 238.520 142.019,238.384 142.318,238.384 142.857 C 238.384 143.333,238.254 143.723,238.095 143.723 C 237.937 143.723,237.807 144.122,237.807 144.609 C 237.807 145.097,237.604 145.698,237.357 145.945 C 237.110 146.192,236.978 146.578,237.064 146.801 C 237.149 147.025,237.027 147.282,236.792 147.372 C 236.553 147.464,236.364 147.898,236.364 148.354 C 236.364 148.804,236.234 149.253,236.075 149.351 C 235.916 149.449,235.786 149.765,235.786 150.054 C 235.786 150.343,235.592 150.740,235.354 150.938 C 235.115 151.136,234.921 151.598,234.921 151.966 C 234.921 152.334,234.791 152.716,234.632 152.814 C 234.473 152.912,234.343 153.244,234.343 153.552 C 234.343 153.860,234.149 154.113,233.911 154.113 C 233.645 154.113,233.478 153.843,233.478 153.415 C 233.478 153.032,233.340 152.672,233.171 152.615 C 233.002 152.559,232.824 152.144,232.774 151.693 C 232.725 151.242,232.570 150.790,232.431 150.689 C 232.054 150.414,231.149 147.741,231.332 147.444 C 231.420 147.302,231.281 147.186,231.025 147.186 C 230.768 147.186,230.638 147.056,230.736 146.898 C 230.834 146.739,230.761 146.609,230.573 146.609 C 230.333 146.609,230.349 146.465,230.628 146.121 C 230.866 145.827,230.886 145.715,230.678 145.840 C 230.446 145.980,230.270 145.714,230.141 145.030 C 230.036 144.470,229.819 144.012,229.658 144.012 C 229.494 144.012,229.525 143.820,229.731 143.572 C 230.035 143.207,230.020 143.162,229.643 143.306 C 229.305 143.436,229.227 143.339,229.336 142.923 C 229.417 142.617,229.277 142.161,229.027 141.911 C 228.776 141.660,228.569 141.024,228.567 140.497 C 228.564 139.772,228.494 139.644,228.283 139.971 C 227.977 140.444,227.997 140.501,227.894 138.827 C 227.869 138.426,227.588 137.984,227.249 137.815 C 226.919 137.649,226.703 137.352,226.768 137.155 C 226.834 136.958,226.747 136.797,226.575 136.797 C 226.403 136.797,226.263 136.671,226.263 136.517 C 226.263 136.363,226.425 136.277,226.623 136.325 C 226.822 136.374,226.887 136.359,226.768 136.292 C 226.649 136.226,226.551 135.987,226.551 135.762 C 226.551 135.538,226.421 135.354,226.263 135.354 C 226.104 135.354,225.989 135.256,226.008 135.137 C 226.027 135.018,226.013 134.856,225.977 134.776 C 225.941 134.697,225.878 134.242,225.836 133.766 C 225.795 133.290,225.744 132.738,225.723 132.540 C 225.702 132.341,225.465 132.179,225.195 132.179 C 224.813 132.179,224.781 132.256,225.051 132.525 C 225.519 132.994,225.487 133.333,224.974 133.333 C 224.742 133.333,224.412 133.074,224.242 132.756 C 223.992 132.288,224.023 132.179,224.407 132.179 C 224.728 132.179,224.823 132.026,224.700 131.705 C 224.552 131.319,224.595 131.296,224.935 131.577 C 225.279 131.863,225.325 131.822,225.198 131.337 C 225.068 130.840,224.950 130.798,224.427 131.067 C 223.918 131.328,223.873 131.316,224.170 131.002 C 224.369 130.792,224.523 130.289,224.513 129.885 C 224.495 129.157,224.491 129.156,224.233 129.798 C 223.919 130.579,223.849 130.591,223.340 129.942 C 222.981 129.485,222.991 129.474,223.449 129.833 C 223.884 130.174,223.954 130.166,223.954 129.776 C 223.954 129.526,223.727 129.194,223.449 129.038 C 222.992 128.782,222.989 128.737,223.413 128.574 C 223.680 128.471,223.882 128.069,223.882 127.640 L 223.882 126.887 223.495 127.585 C 223.282 127.969,223.104 128.120,223.098 127.922 C 223.093 127.724,222.966 127.561,222.816 127.561 C 222.666 127.561,222.599 127.849,222.667 128.201 C 222.735 128.553,222.802 139.103,222.816 151.646 C 222.834 167.363,222.938 174.567,223.151 174.823 C 223.320 175.027,223.375 175.278,223.273 175.380 C 223.171 175.482,223.088 175.414,223.088 175.228 C 223.088 175.043,222.969 174.892,222.824 174.892 C 222.678 174.892,222.704 175.269,222.881 175.740 C 223.057 176.206,223.308 176.522,223.438 176.441 C 223.568 176.361,223.616 176.200,223.545 176.085 C 223.473 175.969,223.548 175.686,223.711 175.455 C 223.955 175.112,223.980 175.126,223.849 175.533 C 223.761 175.807,223.846 176.132,224.038 176.255 C 224.434 176.509,224.604 177.568,224.210 177.325 C 223.729 177.028,223.952 177.976,224.516 178.626 C 224.846 179.007,225.221 179.185,225.426 179.058 C 225.647 178.922,225.699 178.965,225.569 179.176 C 225.455 179.359,225.187 179.509,224.972 179.509 C 224.488 179.509,224.579 180.337,225.098 180.658 C 225.390 180.838,225.351 180.926,224.934 181.030 C 224.521 181.132,224.616 181.219,225.320 181.383 C 225.860 181.508,226.175 181.727,226.066 181.902 C 225.947 182.095,226.080 182.134,226.432 182.011 C 226.948 181.829,226.952 181.842,226.479 182.210 C 225.588 182.904,225.858 182.935,233.049 182.962 L 240.123 182.990 240.390 182.288 C 240.537 181.902,240.795 181.500,240.963 181.396 C 241.132 181.292,241.270 180.955,241.270 180.647 C 241.270 180.339,241.421 180.087,241.607 180.087 C 241.792 180.087,241.862 180.005,241.762 179.906 C 241.663 179.806,241.771 179.358,242.003 178.910 C 242.235 178.462,242.424 177.825,242.424 177.494 C 242.424 177.164,242.619 176.819,242.857 176.728 C 243.101 176.634,243.290 176.205,243.290 175.744 C 243.290 175.294,243.420 174.846,243.579 174.747 C 243.737 174.649,243.867 174.333,243.867 174.044 C 243.867 173.756,244.065 173.355,244.307 173.154 C 244.549 172.954,244.686 172.729,244.612 172.654 C 244.538 172.580,244.724 172.058,245.026 171.495 C 245.329 170.931,245.508 170.361,245.426 170.228 C 245.344 170.095,245.414 169.986,245.582 169.986 C 245.750 169.986,245.887 169.588,245.887 169.103 C 245.887 168.617,246.007 168.294,246.153 168.384 C 246.298 168.474,246.503 168.158,246.608 167.683 C 246.712 167.207,246.918 166.743,247.064 166.653 C 247.211 166.562,247.330 166.171,247.330 165.784 C 247.330 165.396,247.429 165.079,247.548 165.079 C 247.786 165.079,248.435 163.388,248.683 162.124 C 248.768 161.689,248.953 161.405,249.094 161.492 C 249.235 161.579,249.351 161.329,249.351 160.936 C 249.351 160.543,249.483 160.177,249.646 160.123 C 249.808 160.069,250.010 159.636,250.096 159.161 C 250.181 158.686,250.373 158.174,250.522 158.023 C 250.672 157.872,250.794 157.526,250.794 157.253 C 250.794 156.981,250.920 156.715,251.074 156.662 C 251.228 156.609,251.399 156.272,251.453 155.912 C 251.507 155.553,251.706 155.105,251.894 154.917 C 252.083 154.728,252.237 154.283,252.237 153.928 C 252.237 153.572,252.367 153.201,252.525 153.102 C 252.684 153.004,252.814 152.728,252.814 152.488 C 252.814 152.248,253.009 151.856,253.247 151.618 C 253.485 151.380,253.680 150.878,253.680 150.501 C 253.680 150.125,253.810 149.737,253.968 149.639 C 254.127 149.541,254.257 149.220,254.257 148.925 C 254.257 148.630,254.419 148.335,254.618 148.268 C 254.816 148.202,254.995 147.867,255.014 147.523 C 255.080 146.391,255.120 146.284,255.411 146.465 C 255.579 146.568,255.700 146.281,255.700 145.777 C 255.700 145.301,255.830 144.831,255.988 144.733 C 256.147 144.635,256.277 144.312,256.277 144.015 C 256.277 143.718,256.472 143.281,256.710 143.043 C 256.948 142.805,257.143 142.341,257.143 142.012 C 257.143 141.683,257.273 141.414,257.431 141.414 C 257.590 141.414,257.720 141.100,257.720 140.717 C 257.720 140.333,257.856 139.974,258.021 139.919 C 258.187 139.864,258.345 139.528,258.371 139.173 C 258.398 138.818,258.530 138.528,258.664 138.528 C 258.799 138.528,258.828 138.398,258.730 138.240 C 258.632 138.081,258.666 137.951,258.805 137.951 C 258.945 137.951,259.237 137.297,259.454 136.498 C 259.672 135.698,260.020 134.903,260.228 134.731 C 260.436 134.558,260.606 134.116,260.606 133.748 C 260.606 133.380,260.736 132.999,260.895 132.900 C 261.053 132.802,261.183 132.470,261.183 132.162 C 261.183 131.854,261.321 131.602,261.489 131.602 C 261.657 131.602,261.734 131.504,261.660 131.384 C 261.586 131.264,261.773 130.656,262.076 130.033 C 262.378 129.411,262.626 128.722,262.626 128.503 C 262.626 128.284,262.756 128.185,262.915 128.283 C 263.087 128.389,263.203 128.040,263.203 127.417 C 263.203 126.843,263.319 126.444,263.460 126.531 C 263.601 126.618,263.932 126.009,264.197 125.177 C 264.461 124.346,264.995 122.980,265.384 122.142 C 265.772 121.305,266.089 120.428,266.089 120.194 C 266.089 119.960,266.211 119.769,266.360 119.769 C 266.508 119.769,266.671 119.347,266.721 118.831 C 266.770 118.315,266.957 117.920,267.136 117.953 C 267.314 117.986,267.460 117.679,267.460 117.271 C 267.460 116.863,267.593 116.446,267.755 116.345 C 267.917 116.244,268.096 115.837,268.152 115.440 C 268.208 115.043,268.348 114.648,268.463 114.562 C 268.578 114.476,268.720 114.093,268.778 113.711 C 268.836 113.330,269.034 112.967,269.218 112.906 C 269.402 112.845,269.553 112.416,269.553 111.953 C 269.553 111.490,269.683 111.111,269.841 111.111 C 270.000 111.111,270.130 110.782,270.130 110.381 C 270.130 109.979,270.324 109.576,270.561 109.485 C 270.798 109.393,270.932 109.222,270.859 109.103 C 270.786 108.984,270.912 108.641,271.140 108.340 C 271.368 108.039,271.559 107.305,271.564 106.710 L 271.573 105.628 262.097 105.628 C 256.886 105.628,252.535 105.714,252.429 105.820 M295.947 105.988 C 295.871 106.187,295.843 123.557,295.884 144.589 L 295.960 182.828 303.463 182.849 C 309.730 182.866,310.229 182.840,306.494 182.693 C 304.033 182.596,302.540 182.470,303.175 182.413 L 304.329 182.309 303.030 182.107 C 302.316 181.996,301.894 181.885,302.092 181.862 C 302.379 181.827,302.453 174.099,302.453 144.300 C 302.453 114.480,302.379 106.781,302.092 106.778 C 301.852 106.775,301.876 106.680,302.165 106.494 C 302.549 106.245,302.549 106.207,302.165 106.153 C 301.926 106.120,303.030 106.014,304.618 105.916 C 307.016 105.769,306.540 105.730,301.795 105.684 C 297.452 105.641,296.053 105.714,295.947 105.988 M222.222 126.547 C 222.222 126.943,223.064 127.393,223.322 127.135 C 223.405 127.052,223.289 126.982,223.064 126.980 C 222.730 126.976,222.725 126.931,223.040 126.731 C 223.333 126.546,223.281 126.449,222.824 126.330 C 222.442 126.230,222.222 126.309,222.222 126.547 M215.873 158.499 C 216.032 158.690,216.162 159.055,216.162 159.310 C 216.162 159.565,216.350 160.026,216.579 160.334 C 216.949 160.831,216.955 160.770,216.628 159.803 C 216.425 159.203,216.107 158.586,215.921 158.432 C 215.679 158.232,215.666 158.251,215.873 158.499 M221.285 171.487 C 221.168 171.793,221.296 171.998,221.665 172.095 C 222.028 172.190,222.222 172.093,222.222 171.817 C 222.222 171.585,222.103 171.468,221.958 171.558 C 221.813 171.647,221.642 171.564,221.578 171.373 C 221.503 171.145,221.401 171.185,221.285 171.487 M244.444 211.850 C 244.444 212.018,244.295 212.063,244.111 211.949 C 243.891 211.813,243.857 211.871,244.012 212.121 C 244.140 212.329,244.216 213.397,244.181 214.493 C 244.142 215.695,244.251 216.650,244.457 216.898 C 244.674 217.160,244.724 217.699,244.594 218.394 C 244.314 219.892,244.212 226.689,244.489 225.397 C 244.639 224.696,244.660 224.872,244.558 225.974 C 243.826 233.834,243.676 241.902,244.265 241.676 C 244.586 241.553,244.616 241.762,244.421 242.768 C 244.289 243.452,244.192 244.401,244.206 244.877 C 244.231 245.728,244.236 245.726,244.444 244.733 C 244.633 243.838,244.661 243.913,244.695 245.399 C 244.719 246.452,244.626 247.010,244.444 246.898 C 244.256 246.781,244.173 248.205,244.206 250.993 C 244.246 254.470,244.294 254.917,244.464 253.391 C 244.595 252.206,244.656 253.695,244.630 257.431 C 244.607 260.685,244.621 269.037,244.661 275.991 L 244.733 288.634 264.141 288.499 C 286.189 288.346,284.415 288.401,284.865 287.859 C 285.056 287.629,285.710 287.446,286.344 287.446 C 287.028 287.446,287.409 287.331,287.302 287.157 C 287.196 286.987,287.520 286.869,288.093 286.869 C 288.626 286.869,289.218 286.713,289.408 286.522 C 289.599 286.332,289.755 286.272,289.755 286.388 C 289.755 286.505,290.018 286.459,290.340 286.287 C 290.684 286.103,290.840 285.831,290.717 285.628 C 290.593 285.420,290.705 285.439,290.998 285.677 C 291.316 285.936,291.486 285.961,291.486 285.750 C 291.486 285.571,291.714 285.424,291.991 285.421 C 292.797 285.414,294.775 284.651,294.891 284.302 C 294.950 284.126,295.319 283.983,295.712 283.983 C 296.105 283.983,296.355 283.866,296.267 283.724 C 296.081 283.424,296.906 283.043,297.264 283.264 C 297.397 283.347,297.589 283.150,297.691 282.828 C 297.793 282.506,297.983 282.308,298.112 282.388 C 298.241 282.468,298.501 282.348,298.690 282.121 C 298.878 281.894,299.217 281.779,299.444 281.866 C 299.670 281.953,299.856 281.880,299.856 281.705 C 299.856 281.529,300.076 281.385,300.346 281.385 C 300.728 281.385,300.760 281.308,300.491 281.039 C 300.010 280.558,300.057 280.216,300.577 280.415 C 300.815 280.506,301.010 280.430,301.010 280.245 C 301.010 280.060,301.140 279.988,301.299 280.087 C 301.457 280.185,301.587 280.131,301.587 279.968 C 301.587 279.805,301.782 279.747,302.020 279.838 C 302.343 279.962,302.453 279.794,302.455 279.180 C 302.455 278.726,302.457 265.510,302.457 249.810 C 302.458 232.571,302.565 221.136,302.728 220.940 C 302.896 220.737,302.885 220.457,302.698 220.192 C 302.457 219.852,302.433 219.874,302.573 220.306 C 302.706 220.714,302.637 220.801,302.288 220.667 C 302.036 220.570,301.774 220.491,301.708 220.491 C 301.642 220.491,301.587 220.288,301.587 220.041 C 301.587 219.771,301.452 219.674,301.250 219.799 C 301.031 219.935,300.970 219.857,301.077 219.579 C 301.275 219.062,300.344 218.412,299.738 218.645 C 299.502 218.735,299.022 218.543,298.673 218.217 C 298.323 217.891,297.910 217.703,297.754 217.799 C 297.599 217.895,297.532 217.795,297.604 217.576 C 297.726 217.212,296.284 216.456,295.326 216.381 C 295.137 216.366,295.007 216.219,295.038 216.053 C 295.069 215.888,294.775 215.731,294.384 215.705 C 293.994 215.679,293.626 215.511,293.567 215.332 C 293.507 215.154,293.090 215.007,292.641 215.007 C 292.191 215.007,291.774 214.861,291.715 214.682 C 291.611 214.371,290.238 214.048,287.473 213.683 C 286.774 213.591,286.030 213.344,285.821 213.135 C 285.612 212.926,285.015 212.791,284.495 212.835 C 283.975 212.880,283.290 212.755,282.973 212.559 C 282.655 212.363,281.356 212.179,280.087 212.151 C 278.817 212.122,277.734 211.974,277.682 211.821 C 277.542 211.418,244.444 211.446,244.444 211.850 M304.071 221.813 C 303.792 222.541,303.864 222.799,304.346 222.799 C 304.629 222.799,304.716 222.933,304.579 223.160 C 304.432 223.405,304.519 223.394,304.851 223.125 C 305.119 222.907,305.337 222.517,305.335 222.259 C 305.332 221.989,305.240 221.912,305.118 222.078 C 304.698 222.650,304.133 222.552,304.327 221.941 C 304.545 221.254,304.327 221.146,304.071 221.813 M307.125 224.838 C 307.194 225.046,307.422 225.273,307.630 225.343 C 307.846 225.415,307.955 225.307,307.882 225.090 C 307.813 224.882,307.586 224.655,307.377 224.585 C 307.161 224.513,307.053 224.621,307.125 224.838 M274.796 228.277 C 274.848 228.433,275.817 228.615,276.948 228.681 C 278.079 228.747,279.272 228.944,279.599 229.119 C 279.926 229.294,280.656 229.437,281.222 229.437 C 281.788 229.437,282.251 229.567,282.251 229.726 C 282.251 229.885,282.706 230.014,283.261 230.014 C 283.850 230.014,284.241 230.147,284.199 230.334 C 284.159 230.509,284.737 230.836,285.484 231.060 C 286.230 231.284,286.919 231.594,287.016 231.751 C 287.112 231.907,287.443 232.035,287.752 232.035 C 288.074 232.035,288.312 232.232,288.312 232.498 C 288.312 232.792,288.470 232.901,288.744 232.796 C 289.008 232.695,289.595 233.048,290.251 233.703 C 290.842 234.293,291.427 234.744,291.550 234.704 C 291.674 234.665,291.775 234.779,291.775 234.960 C 291.775 235.140,292.132 235.614,292.569 236.013 C 293.348 236.725,294.786 238.906,295.130 239.899 C 295.296 240.377,295.627 240.536,296.225 240.422 C 296.371 240.394,296.323 240.573,296.119 240.819 C 295.813 241.188,295.829 241.393,296.214 241.980 C 296.471 242.372,296.681 243.091,296.681 243.578 C 296.681 244.064,296.851 244.528,297.058 244.607 C 297.279 244.692,297.408 245.131,297.371 245.673 C 297.336 246.179,297.430 246.824,297.581 247.106 C 297.762 247.444,297.754 247.619,297.557 247.619 C 297.393 247.619,297.258 248.203,297.258 248.918 C 297.258 249.632,297.391 250.216,297.552 250.216 C 297.719 250.216,297.779 249.872,297.690 249.423 C 297.534 248.629,297.534 248.629,297.844 249.344 C 298.089 249.909,298.062 250.125,297.716 250.378 C 297.383 250.622,297.359 250.779,297.615 251.035 C 297.871 251.291,297.869 251.371,297.607 251.371 C 297.391 251.371,297.279 251.796,297.307 252.513 C 297.334 253.198,297.469 253.584,297.643 253.476 C 297.827 253.362,297.850 253.499,297.706 253.849 C 297.581 254.153,297.442 254.677,297.398 255.015 C 297.353 255.352,297.178 255.887,297.009 256.204 C 296.839 256.521,296.752 257.051,296.816 257.381 C 296.894 257.786,296.749 258.040,296.373 258.159 C 295.937 258.298,295.855 258.501,296.002 259.083 C 296.135 259.614,296.046 259.935,295.694 260.192 C 295.422 260.391,295.208 260.630,295.219 260.724 C 295.297 261.422,295.066 261.808,293.762 263.154 C 292.950 263.991,292.366 264.757,292.463 264.854 C 292.561 264.952,292.641 264.880,292.641 264.695 C 292.641 264.509,292.786 264.358,292.965 264.358 C 293.194 264.358,293.188 264.479,292.944 264.774 C 292.754 265.002,292.430 265.125,292.224 265.046 C 291.818 264.890,291.384 265.690,291.645 266.112 C 291.733 266.255,291.581 266.285,291.307 266.180 C 290.914 266.030,290.851 266.100,291.010 266.513 C 291.160 266.905,291.118 266.969,290.844 266.768 C 290.446 266.476,288.797 267.922,289.138 268.263 C 289.238 268.363,288.959 268.354,288.516 268.243 C 287.919 268.093,287.733 268.141,287.795 268.429 C 287.843 268.651,287.580 268.863,287.183 268.923 C 286.800 268.981,286.296 269.218,286.063 269.451 C 285.830 269.684,285.462 269.806,285.244 269.723 C 285.012 269.634,284.848 269.759,284.848 270.026 C 284.848 270.316,284.688 270.419,284.405 270.310 C 284.146 270.211,283.888 270.329,283.787 270.592 C 283.647 270.957,283.567 270.970,283.370 270.659 C 283.187 270.371,283.125 270.365,283.121 270.635 C 283.119 270.863,282.691 270.996,281.962 270.996 C 281.261 270.996,280.836 271.122,280.880 271.318 C 280.928 271.530,280.332 271.637,279.146 271.630 C 277.959 271.623,277.199 271.760,276.930 272.029 C 276.599 272.360,275.186 272.439,269.573 272.439 L 262.626 272.439 262.626 250.216 L 262.626 227.994 268.663 227.994 C 272.353 227.994,274.737 228.104,274.796 228.277 M311.317 230.596 C 311.401 230.916,311.606 231.262,311.772 231.365 C 311.963 231.483,312.003 231.365,311.882 231.048 C 311.775 230.771,311.688 230.425,311.688 230.279 C 311.688 230.134,311.571 230.014,311.427 230.014 C 311.283 230.014,311.234 230.276,311.317 230.596 M357.386 235.354 C 357.387 236.623,357.438 237.107,357.499 236.428 C 357.560 235.749,357.559 234.710,357.497 234.119 C 357.435 233.528,357.385 234.084,357.386 235.354 M244.733 237.645 C 244.733 238.509,244.603 239.296,244.444 239.394 C 244.264 239.505,244.156 238.916,244.156 237.824 C 244.156 236.850,244.284 236.075,244.444 236.075 C 244.603 236.075,244.733 236.782,244.733 237.645 M221.512 248.232 C 221.633 248.614,221.562 248.935,221.324 249.082 C 221.113 249.213,221.041 249.420,221.164 249.543 C 221.287 249.666,221.509 249.576,221.656 249.342 C 222.024 248.761,222.003 247.619,221.626 247.619 C 221.443 247.619,221.397 247.868,221.512 248.232 M221.445 252.670 C 221.282 253.384,221.248 253.968,221.371 253.968 C 221.614 253.968,222.069 251.699,221.866 251.496 C 221.798 251.428,221.608 251.956,221.445 252.670 M218.265 265.512 C 218.182 265.830,217.978 266.089,217.811 266.089 C 217.645 266.089,217.594 266.175,217.699 266.280 C 217.911 266.492,219.048 265.564,219.048 265.179 C 219.048 264.683,218.411 264.955,218.265 265.512 M357.380 271.861 C 357.380 272.893,357.432 273.315,357.496 272.799 C 357.560 272.284,357.560 271.439,357.496 270.924 C 357.432 270.408,357.380 270.830,357.380 271.861 M214.719 272.150 C 214.719 272.468,214.779 272.727,214.853 272.727 C 214.927 272.727,215.126 272.468,215.296 272.150 C 215.542 271.689,215.515 271.573,215.162 271.573 C 214.911 271.573,214.719 271.824,214.719 272.150 M306.205 275.486 C 306.205 275.733,306.084 275.861,305.936 275.770 C 305.571 275.544,305.328 275.994,305.588 276.415 C 305.739 276.659,305.917 276.608,306.218 276.236 C 306.745 275.584,306.871 275.036,306.494 275.036 C 306.335 275.036,306.205 275.239,306.205 275.486 M303.896 277.778 C 303.692 278.024,303.590 278.290,303.670 278.369 C 303.749 278.448,303.981 278.312,304.185 278.066 C 304.389 277.821,304.491 277.555,304.411 277.475 C 304.332 277.396,304.100 277.532,303.896 277.778 " stroke="none" fill="#32bccc" fill-rule="evenodd"></path><path id="path4" d="M0.000 7.792 L 0.000 15.584 10.533 15.584 L 21.065 15.584 21.139 46.248 L 21.212 76.912 30.087 76.988 L 38.961 77.065 38.961 46.325 L 38.961 15.584 49.897 15.584 C 59.603 15.584,60.853 15.533,61.008 15.128 C 61.104 14.877,61.183 11.370,61.183 7.336 L 61.183 0.000 30.592 0.000 L 0.000 0.000 0.000 7.792 M83.410 38.167 C 83.413 64.354,83.509 76.471,83.717 76.768 C 83.955 77.107,83.981 77.060,83.838 76.553 C 83.698 76.054,83.756 75.944,84.090 76.072 C 84.330 76.164,84.450 76.430,84.359 76.667 C 84.228 77.009,84.420 77.077,85.315 77.004 L 86.436 76.912 86.509 38.456 L 86.582 0.000 85.572 0.000 L 84.562 0.000 84.488 38.023 L 84.413 76.046 84.342 38.023 C 84.280 4.449,84.221 0.000,83.838 0.000 C 83.456 0.000,83.406 4.431,83.410 38.167 M1.734 144.285 L 1.740 182.942 10.754 182.957 C 15.713 182.965,19.899 182.875,20.058 182.756 C 20.437 182.472,20.398 185.172,20.447 155.683 C 20.476 138.344,20.588 129.607,20.779 129.726 C 20.938 129.824,21.068 130.290,21.068 130.762 C 21.068 131.258,21.250 131.690,21.501 131.786 C 21.765 131.887,21.934 132.324,21.934 132.907 C 21.934 133.433,22.059 133.906,22.213 133.959 C 22.367 134.012,22.524 134.477,22.563 134.993 C 22.602 135.509,22.736 135.931,22.861 135.931 C 22.986 135.931,23.088 136.385,23.088 136.941 C 23.088 137.646,23.219 137.951,23.521 137.951 C 23.759 137.951,23.954 138.206,23.954 138.517 C 23.954 139.346,24.900 142.280,25.168 142.280 C 25.294 142.280,25.397 142.662,25.397 143.129 C 25.397 143.596,25.527 144.058,25.685 144.156 C 25.844 144.254,25.974 144.708,25.974 145.166 C 25.974 145.623,26.104 146.078,26.263 146.176 C 26.421 146.274,26.551 146.740,26.551 147.212 C 26.551 147.709,26.734 148.140,26.984 148.236 C 27.249 148.338,27.417 148.775,27.417 149.364 C 27.417 149.894,27.547 150.407,27.706 150.505 C 27.864 150.603,27.994 151.130,27.994 151.676 C 27.994 152.317,28.122 152.644,28.355 152.597 C 28.581 152.552,28.749 152.931,28.805 153.608 C 28.855 154.203,29.017 154.690,29.166 154.690 C 29.315 154.690,29.437 155.053,29.437 155.498 C 29.437 155.942,29.571 156.439,29.734 156.602 C 29.896 156.765,30.059 157.310,30.094 157.814 C 30.130 158.319,30.320 158.729,30.519 158.730 C 30.739 158.730,30.880 159.125,30.880 159.740 C 30.880 160.296,31.010 160.750,31.169 160.750 C 31.328 160.750,31.457 161.124,31.457 161.581 C 31.457 162.038,31.652 162.573,31.890 162.771 C 32.128 162.968,32.323 163.568,32.323 164.105 C 32.323 164.641,32.453 165.079,32.612 165.079 C 32.771 165.079,32.900 165.534,32.900 166.089 C 32.900 166.645,33.030 167.100,33.189 167.100 C 33.348 167.100,33.478 167.554,33.478 168.110 C 33.478 168.815,33.608 169.120,33.911 169.120 C 34.213 169.120,34.343 169.424,34.343 170.130 C 34.343 170.685,34.473 171.140,34.632 171.140 C 34.791 171.140,34.921 171.584,34.921 172.126 C 34.921 172.668,35.072 173.162,35.256 173.224 C 35.441 173.285,35.627 173.588,35.671 173.897 C 35.758 174.517,36.281 176.355,36.700 177.511 C 36.848 177.920,36.990 178.533,37.016 178.874 C 37.042 179.215,37.230 179.559,37.435 179.637 C 37.639 179.716,37.807 180.148,37.807 180.597 C 37.807 181.047,37.969 181.764,38.167 182.191 L 38.528 182.968 45.654 182.970 L 52.779 182.973 52.869 181.890 C 52.925 181.214,53.093 180.835,53.319 180.880 C 53.517 180.920,53.664 180.855,53.645 180.736 C 53.515 179.912,53.726 178.638,53.968 178.788 C 54.139 178.894,54.257 178.561,54.257 177.970 C 54.257 177.337,54.420 176.911,54.703 176.802 C 54.949 176.708,55.128 176.467,55.102 176.266 C 54.977 175.310,55.150 174.298,55.411 174.459 C 55.583 174.565,55.700 174.221,55.700 173.610 C 55.700 173.045,55.830 172.583,55.988 172.583 C 56.147 172.583,56.277 172.258,56.277 171.861 C 56.277 171.465,56.401 171.140,56.553 171.140 C 56.781 171.140,57.155 169.891,57.287 168.687 C 57.347 168.136,57.975 166.866,58.279 166.678 C 58.448 166.574,58.586 166.106,58.586 165.640 C 58.586 165.173,58.687 164.791,58.812 164.791 C 58.936 164.791,59.065 164.459,59.098 164.054 C 59.132 163.649,59.290 163.073,59.450 162.774 C 59.610 162.476,59.740 161.912,59.740 161.522 C 59.740 161.131,59.935 160.737,60.173 160.646 C 60.424 160.550,60.606 160.118,60.606 159.622 C 60.606 159.150,60.736 158.684,60.895 158.586 C 61.053 158.488,61.183 158.026,61.183 157.559 C 61.183 157.092,61.321 156.710,61.489 156.710 C 61.657 156.710,61.714 156.580,61.616 156.421 C 61.518 156.263,61.575 156.133,61.743 156.133 C 61.912 156.133,62.049 155.735,62.049 155.250 C 62.049 154.764,62.152 154.431,62.278 154.508 C 62.404 154.586,62.538 154.242,62.576 153.743 C 62.614 153.245,62.743 152.766,62.864 152.681 C 62.985 152.595,63.111 152.145,63.144 151.681 C 63.178 151.217,63.400 150.622,63.637 150.360 C 63.875 150.097,64.069 149.463,64.069 148.950 C 64.069 148.437,64.172 148.081,64.298 148.159 C 64.424 148.237,64.558 147.890,64.596 147.389 C 64.634 146.887,64.859 146.369,65.095 146.237 C 65.331 146.104,65.449 145.875,65.357 145.726 C 65.265 145.577,65.393 145.167,65.640 144.814 C 65.887 144.461,66.089 143.738,66.089 143.209 C 66.089 142.640,66.208 142.319,66.378 142.424 C 66.546 142.528,66.667 142.243,66.667 141.744 C 66.667 141.271,66.820 140.834,67.007 140.772 C 67.194 140.709,67.377 140.226,67.414 139.698 C 67.450 139.171,67.592 138.659,67.729 138.561 C 67.866 138.464,68.017 137.929,68.064 137.374 C 68.111 136.818,68.305 136.234,68.495 136.075 C 68.684 135.916,68.829 135.369,68.817 134.858 C 68.799 134.103,68.868 133.991,69.190 134.257 C 69.407 134.438,69.563 134.466,69.535 134.320 C 69.376 133.484,69.591 131.880,69.841 132.035 C 70.010 132.139,70.130 131.842,70.130 131.321 C 70.130 130.831,70.292 130.367,70.491 130.291 C 70.689 130.214,70.871 129.812,70.895 129.396 C 70.920 128.980,71.114 128.529,71.328 128.394 C 71.643 128.194,71.635 128.146,71.284 128.139 C 70.990 128.133,70.958 128.062,71.183 127.918 C 71.365 127.801,71.577 127.381,71.652 126.984 C 71.728 126.587,71.773 139.022,71.754 154.618 L 71.717 182.973 80.087 182.924 C 84.690 182.897,88.001 182.827,87.446 182.767 L 86.436 182.658 86.436 144.300 L 86.436 105.943 87.446 105.834 C 88.001 105.774,82.937 105.705,76.190 105.680 C 62.528 105.631,62.626 105.622,62.626 106.816 C 62.626 107.273,62.496 107.648,62.338 107.648 C 62.179 107.648,62.049 107.957,62.049 108.334 C 62.049 108.711,61.854 109.182,61.616 109.380 C 61.378 109.577,61.183 110.040,61.183 110.408 C 61.183 110.776,61.070 111.147,60.931 111.233 C 60.792 111.319,60.678 111.731,60.678 112.149 C 60.678 112.567,60.526 113.003,60.339 113.118 C 60.153 113.233,59.983 113.641,59.963 114.023 C 59.943 114.406,59.810 114.874,59.666 115.064 C 59.523 115.254,59.340 115.839,59.259 116.363 C 59.177 116.887,58.993 117.359,58.848 117.412 C 58.704 117.465,58.586 117.938,58.586 118.464 C 58.586 119.064,58.418 119.483,58.135 119.592 C 57.887 119.687,57.752 119.877,57.837 120.013 C 57.921 120.150,57.804 120.508,57.576 120.809 C 57.348 121.110,57.157 121.703,57.152 122.126 C 57.147 122.549,56.998 122.944,56.821 123.003 C 56.644 123.062,56.459 123.481,56.409 123.935 C 56.359 124.389,56.211 124.838,56.080 124.934 C 55.949 125.030,55.797 125.498,55.741 125.974 C 55.686 126.450,55.513 126.919,55.357 127.016 C 55.201 127.114,55.084 127.276,55.098 127.377 C 55.214 128.246,55.049 129.037,54.671 129.414 C 54.423 129.663,54.292 129.982,54.380 130.124 C 54.467 130.266,54.346 130.542,54.109 130.739 C 53.873 130.935,53.680 131.458,53.680 131.902 C 53.680 132.345,53.557 132.751,53.408 132.804 C 53.259 132.857,53.068 133.280,52.985 133.743 C 52.902 134.206,52.732 134.661,52.607 134.753 C 52.481 134.845,52.335 135.310,52.280 135.786 C 52.226 136.263,52.064 136.696,51.921 136.748 C 51.777 136.801,51.659 137.288,51.659 137.831 C 51.659 138.487,51.523 138.817,51.252 138.817 C 50.986 138.817,50.873 139.073,50.926 139.555 C 50.970 139.962,50.832 140.469,50.618 140.683 C 50.405 140.896,50.200 141.464,50.163 141.944 C 50.127 142.424,49.994 142.754,49.868 142.676 C 49.659 142.547,49.611 142.704,49.524 143.795 C 49.508 143.994,49.300 144.328,49.062 144.538 C 48.824 144.748,48.791 144.838,48.990 144.737 C 49.188 144.637,49.351 144.692,49.351 144.860 C 49.351 145.028,49.221 145.166,49.062 145.166 C 48.903 145.166,48.773 145.418,48.773 145.726 C 48.773 146.034,48.644 146.367,48.485 146.465 C 48.326 146.563,48.196 147.029,48.196 147.501 C 48.196 147.973,48.029 148.423,47.824 148.501 C 47.620 148.580,47.421 149.063,47.382 149.575 C 47.344 150.086,47.186 150.548,47.033 150.601 C 46.879 150.654,46.753 151.086,46.753 151.560 C 46.753 152.423,46.200 153.247,45.619 153.247 C 45.449 153.247,45.310 152.865,45.310 152.398 C 45.310 151.931,45.180 151.469,45.022 151.371 C 44.863 151.273,44.733 150.885,44.733 150.509 C 44.733 150.133,44.571 149.653,44.372 149.443 C 43.913 148.957,43.290 147.191,43.290 146.372 C 43.290 146.005,43.109 145.743,42.857 145.743 C 42.557 145.743,42.424 145.441,42.424 144.757 C 42.424 144.215,42.298 143.728,42.145 143.675 C 41.991 143.622,41.834 143.157,41.795 142.641 C 41.756 142.125,41.622 141.703,41.497 141.703 C 41.372 141.703,41.270 141.407,41.270 141.045 C 41.270 140.684,41.074 140.109,40.835 139.768 C 40.597 139.427,40.374 138.823,40.341 138.426 C 40.308 138.029,40.179 137.767,40.054 137.844 C 39.929 137.922,39.827 137.537,39.827 136.989 C 39.827 136.369,39.663 135.930,39.394 135.826 C 39.141 135.729,38.961 135.297,38.961 134.785 C 38.961 134.304,38.831 133.911,38.672 133.911 C 38.514 133.911,38.384 133.529,38.384 133.062 C 38.384 132.595,38.254 132.133,38.095 132.035 C 37.937 131.937,37.807 131.409,37.807 130.863 C 37.807 130.223,37.679 129.896,37.446 129.942 C 37.220 129.987,37.052 129.608,36.995 128.926 C 36.946 128.328,36.783 127.913,36.634 128.005 C 36.486 128.097,36.364 127.800,36.364 127.345 C 36.364 126.890,36.173 126.265,35.940 125.957 C 35.707 125.649,35.512 125.040,35.507 124.603 C 35.502 124.167,35.368 123.810,35.209 123.810 C 35.051 123.810,34.921 123.431,34.921 122.968 C 34.921 122.505,34.792 122.083,34.635 122.030 C 34.477 121.977,34.318 121.561,34.280 121.106 C 34.243 120.650,34.047 120.214,33.845 120.137 C 33.643 120.059,33.478 119.555,33.478 119.017 C 33.478 118.478,33.348 118.038,33.189 118.038 C 33.030 118.038,32.900 117.662,32.900 117.203 C 32.900 116.727,32.714 116.296,32.468 116.202 C 32.196 116.097,32.035 115.656,32.035 115.016 C 32.035 114.456,31.920 113.997,31.779 113.997 C 31.638 113.997,31.443 113.608,31.346 113.131 C 31.249 112.655,31.089 111.876,30.992 111.400 C 30.894 110.924,30.635 110.534,30.415 110.534 C 30.142 110.534,30.014 110.175,30.014 109.404 C 30.014 108.782,29.882 108.229,29.720 108.175 C 29.558 108.121,29.395 107.656,29.359 107.141 C 29.322 106.621,29.133 106.206,28.932 106.205 C 28.734 106.205,28.571 106.075,28.571 105.916 C 28.571 105.728,23.905 105.628,15.150 105.628 L 1.728 105.628 1.734 144.285 M89.322 144.300 C 89.322 165.540,89.419 182.857,89.538 182.784 C 89.657 182.710,89.755 165.393,89.755 144.300 C 89.755 123.208,89.657 105.890,89.538 105.817 C 89.419 105.743,89.322 123.061,89.322 144.300 M38.818 211.831 C 38.719 211.991,37.867 212.121,36.924 212.121 C 35.973 212.121,35.209 212.250,35.209 212.410 C 35.209 212.569,34.751 212.698,34.190 212.698 C 33.550 212.698,33.109 212.860,33.005 213.131 C 32.902 213.398,32.464 213.564,31.859 213.564 C 31.321 213.564,30.880 213.694,30.880 213.853 C 30.880 214.012,30.565 214.141,30.179 214.141 C 29.794 214.141,29.284 214.336,29.046 214.574 C 28.807 214.812,28.344 215.007,28.015 215.007 C 27.686 215.007,27.417 215.110,27.417 215.237 C 27.417 215.363,26.833 215.707,26.118 216.002 C 25.404 216.296,24.820 216.647,24.820 216.782 C 24.820 216.917,24.625 217.027,24.387 217.027 C 24.149 217.027,23.954 217.157,23.954 217.316 C 23.954 217.475,23.746 217.605,23.492 217.605 C 23.238 217.605,22.576 218.059,22.020 218.615 C 21.465 219.170,20.861 219.627,20.678 219.629 C 20.225 219.636,18.470 221.211,18.470 221.611 C 18.470 221.788,18.331 221.934,18.161 221.934 C 17.762 221.934,17.027 222.668,17.027 223.067 C 17.027 223.237,16.930 223.346,16.811 223.309 C 16.528 223.221,15.143 224.626,14.907 225.242 C 14.806 225.506,14.592 225.641,14.432 225.542 C 14.272 225.444,14.141 225.630,14.141 225.957 C 14.141 226.284,14.012 226.551,13.853 226.551 C 13.694 226.551,13.564 226.746,13.564 226.984 C 13.564 227.222,13.416 227.417,13.235 227.417 C 12.792 227.417,12.142 228.308,12.130 228.932 C 12.125 229.210,11.991 229.437,11.833 229.437 C 11.674 229.437,11.544 229.762,11.544 230.159 C 11.544 230.556,11.396 230.880,11.215 230.880 C 10.736 230.880,10.121 231.791,10.110 232.516 C 10.105 232.860,9.970 233.185,9.810 233.238 C 9.649 233.292,9.457 233.650,9.383 234.035 C 9.309 234.419,9.135 234.808,8.996 234.899 C 8.752 235.060,8.561 235.701,8.132 237.807 C 8.019 238.362,7.799 238.752,7.643 238.672 C 7.480 238.589,7.322 239.173,7.272 240.051 C 7.222 240.915,7.066 241.501,6.911 241.405 C 6.749 241.305,6.638 242.053,6.638 243.242 C 6.638 244.727,6.529 245.290,6.220 245.409 C 5.625 245.637,5.644 254.665,6.241 255.262 C 6.482 255.503,6.638 256.284,6.638 257.250 C 6.638 258.124,6.768 258.921,6.926 259.019 C 7.085 259.117,7.215 259.778,7.215 260.488 C 7.215 261.369,7.352 261.831,7.648 261.945 C 7.915 262.047,8.081 262.486,8.081 263.090 C 8.081 263.629,8.211 264.069,8.369 264.069 C 8.528 264.069,8.658 264.383,8.658 264.767 C 8.658 265.388,9.404 267.150,9.829 267.532 C 9.917 267.612,10.168 268.131,10.387 268.687 C 10.605 269.242,11.085 270.007,11.453 270.386 C 11.820 270.764,12.125 271.284,12.130 271.540 C 12.142 272.131,12.804 273.016,13.235 273.016 C 13.416 273.016,13.568 273.243,13.573 273.521 C 13.585 274.145,14.235 275.036,14.678 275.036 C 14.859 275.036,15.011 275.198,15.015 275.397 C 15.020 275.595,15.470 276.082,16.017 276.479 C 16.564 276.876,17.015 277.307,17.019 277.438 C 17.031 277.783,17.801 278.499,18.161 278.499 C 18.331 278.499,18.470 278.638,18.470 278.808 C 18.470 279.216,19.208 279.942,19.621 279.942 C 19.801 279.942,19.867 280.072,19.769 280.231 C 19.671 280.390,19.858 280.519,20.185 280.519 C 20.521 280.519,20.779 280.708,20.779 280.952 C 20.779 281.190,20.978 281.385,21.222 281.385 C 21.465 281.385,22.052 281.781,22.525 282.265 C 22.998 282.750,23.490 283.081,23.617 283.002 C 23.744 282.924,24.031 283.112,24.254 283.421 C 24.476 283.730,24.954 283.983,25.316 283.983 C 25.709 283.983,25.974 284.157,25.974 284.416 C 25.974 284.685,26.247 284.848,26.696 284.848 C 27.092 284.848,27.417 284.978,27.417 285.137 C 27.417 285.296,27.742 285.426,28.139 285.426 C 28.535 285.426,28.860 285.546,28.860 285.693 C 28.860 285.840,29.252 286.156,29.731 286.395 C 30.286 286.672,30.532 286.706,30.410 286.488 C 30.280 286.258,30.344 286.264,30.607 286.508 C 30.821 286.706,31.294 286.869,31.659 286.869 C 32.025 286.869,32.323 286.999,32.323 287.157 C 32.323 287.316,32.767 287.446,33.309 287.446 C 33.852 287.446,34.346 287.599,34.409 287.786 C 34.631 288.452,38.825 288.571,62.545 288.585 C 83.417 288.598,86.541 288.545,86.401 288.182 C 86.298 287.912,85.710 287.725,84.751 287.658 L 83.261 287.553 84.922 287.499 L 86.582 287.446 86.509 249.567 L 86.436 211.688 62.716 211.614 C 47.044 211.566,38.936 211.639,38.818 211.831 M244.229 265.079 C 244.232 265.714,244.291 265.940,244.360 265.581 C 244.429 265.222,244.426 264.703,244.354 264.427 C 244.282 264.151,244.225 264.444,244.229 265.079 " stroke="none" fill="#80cca8" fill-rule="evenodd"></path></g></svg>